<svg xmlns="http://www.w3.org/2000/svg" xmlns:xlink="http://www.w3.org/1999/xlink" width="1536" zoomAndPan="magnify" viewBox="0 0 1152 1439.999935" height="1920" preserveAspectRatio="xMidYMid meet" version="1.0"><rect x="-115.2" width="1382.4" fill="#ffffff" y="-143.999994" height="1727.999922" fill-opacity="1"/><rect x="-115.2" width="1382.4" fill="#ffffff" y="-143.999994" height="1727.999922" fill-opacity="1"/><rect x="-115.2" width="1382.4" fill="#ffffff" y="-143.999994" height="1727.999922" fill-opacity="1"/><rect x="-115.2" width="1382.4" fill="#ffffff" y="-143.999994" height="1727.999922" fill-opacity="1"/><path fill="#b9ac96" d="M 847.304688 543.128906 C 841.449219 590.777344 821.566406 636.519531 788.789062 671.855469 C 754.273438 709.070312 702.601562 737.554688 650.503906 731.917969 C 597.808594 726.226562 559.675781 688.21875 512.34375 668.84375 C 460.988281 647.796875 402.792969 658.6875 351.761719 636.035156 C 331.480469 627.023438 312.398438 612.878906 301.128906 593.441406 C 287.574219 570.03125 288.261719 542.125 295.832031 516.851562 C 301.960938 496.476562 311.847656 477.457031 324.636719 460.640625 C 330.238281 452.292969 336.402344 444.367188 343.160156 436.90625 C 343.273438 435.167969 343.867188 433.347656 345.09375 431.5625 C 352.289062 421.007812 360.222656 412.320312 370.234375 404.414062 C 409.070312 373.707031 459.582031 358.492188 508.921875 364.890625 C 537.476562 368.59375 566.136719 381.417969 595.210938 375.546875 C 622.5 370.039062 647.582031 357.480469 675.289062 353.148438 C 701.316406 349.082031 728.636719 348.792969 753.8125 357.554688 C 779.796875 366.628906 800.367188 383.964844 815.980469 406.398438 C 843.371094 445.730469 853.113281 495.984375 847.304688 543.128906 Z M 847.304688 543.128906 " fill-opacity="1" fill-rule="nonzero"/><path fill="#acb6a7" d="M 512.507812 882.15625 C 492.949219 900.777344 462.792969 894.082031 439.148438 889.253906 C 424.222656 886.21875 409.640625 881.953125 395.378906 876.738281 C 389.144531 875.5625 382.835938 874.824219 376.441406 875.164062 C 364.496094 875.808594 353.796875 881.808594 342.378906 884.703125 C 316.894531 891.121094 290.492188 882.71875 267.25 872.3125 C 245.625 862.636719 227.320312 847.605469 218.820312 824.96875 C 209.292969 799.644531 213.746094 772.042969 226.722656 749.066406 C 225.625 747.117188 225.804688 744.464844 228.316406 742.921875 C 229.523438 742.183594 230.734375 741.476562 231.949219 740.753906 C 238.90625 730.675781 247.566406 721.765625 257.375 714.761719 C 276.785156 700.890625 300.164062 693.9375 323.664062 691.300781 C 331.921875 690.363281 340.234375 690.058594 348.550781 690.253906 C 354.785156 689.625 360.964844 689.855469 366.804688 691.480469 C 376.5625 692.457031 386.753906 694.210938 394.074219 701 C 402.15625 708.480469 403.363281 719.894531 410.789062 727.648438 C 417.164062 734.328125 426.597656 737.527344 435.148438 740.363281 C 455.785156 747.167969 474.867188 753.671875 491.554688 768.214844 C 508.179688 782.699219 521.121094 803.371094 525.746094 825.03125 C 529.875 844.40625 527.617188 867.800781 512.507812 882.15625 Z M 512.507812 882.15625 " fill-opacity="1" fill-rule="nonzero"/><path fill="#cdae8d" d="M 941.496094 880.550781 C 940.355469 911.746094 937.808594 945.882812 927.617188 975.601562 C 918.382812 1002.5 899.878906 1022.601562 873.207031 1032.804688 C 854.933594 1039.773438 835.234375 1040.992188 816.042969 1038.242188 C 811.921875 1038.550781 807.730469 1038.566406 803.5 1038.226562 C 772.507812 1035.75 744.207031 1021.570312 713.832031 1015.988281 C 682.421875 1010.226562 650.109375 1010.839844 618.949219 1003.453125 C 592.53125 997.207031 565.472656 985.082031 547.730469 963.855469 C 530.582031 943.335938 523.292969 916.964844 526.367188 890.480469 C 533.128906 832.136719 576.695312 791.328125 627.984375 768.078125 C 656.316406 755.238281 686.117188 746.257812 715.78125 736.957031 C 746.429688 727.347656 777.066406 715.972656 808.472656 709.070312 C 835.097656 703.214844 863.847656 701.25 888.886719 713.878906 C 914.875 726.992188 927.472656 754.667969 933.417969 781.761719 C 940.484375 814.007812 942.671875 847.625 941.496094 880.550781 Z M 941.496094 880.550781 " fill-opacity="1" fill-rule="nonzero"/><path fill="#5b6451" d="M 890.90625 372.96875 C 864.019531 379.648438 835.921875 377.820312 808.8125 383.179688 C 796.742188 385.570312 784.785156 389.34375 774.101562 395.527344 C 763.808594 401.484375 755.746094 409.757812 748.203125 418.839844 C 743.960938 423.945312 739.839844 429.152344 735.386719 434.070312 C 730.96875 438.949219 726.03125 443.160156 721.066406 447.449219 C 720.941406 447.558594 720.871094 447.679688 720.828125 447.808594 C 694.402344 459.101562 670.542969 475.898438 649.695312 495.753906 C 650.085938 494.570312 650.441406 493.394531 650.800781 492.375 C 652.085938 488.648438 653.125 484.859375 654.054688 481.03125 C 654.28125 480.101562 654.496094 479.167969 654.691406 478.238281 C 655.203125 478.265625 655.722656 478.070312 656.171875 477.53125 C 667.582031 463.910156 679.792969 448.871094 681.214844 430.421875 C 681.578125 425.621094 680.863281 420.378906 683.511719 416.089844 C 685.800781 412.371094 689.308594 409.671875 691.242188 405.679688 C 695.160156 397.589844 694.488281 388.390625 695.523438 379.691406 C 696.785156 369.164062 701.5625 359.105469 708.757812 351.34375 C 710.296875 349.683594 707.855469 347.214844 706.261719 348.851562 C 706.132812 348.976562 706.015625 349.121094 705.886719 349.257812 C 705.878906 349.257812 705.871094 349.257812 705.859375 349.257812 C 687.898438 353.132812 672.613281 367.378906 662.847656 382.339844 C 651.261719 400.097656 645.828125 420.972656 643.675781 441.867188 C 643.027344 448.164062 642.890625 454.625 643.65625 460.921875 C 644.015625 463.824219 644.542969 466.691406 645.335938 469.507812 C 646.1875 472.519531 647.097656 475.8125 648.910156 478.394531 C 649.984375 479.925781 652.488281 479.03125 652.007812 477.089844 C 651.414062 474.671875 650.28125 472.445312 649.472656 470.085938 C 648.578125 467.472656 647.835938 464.792969 647.242188 462.105469 C 646.042969 456.726562 645.675781 451.339844 646 445.851562 C 646.59375 435.492188 648.917969 425.171875 651.746094 415.203125 C 656.964844 396.832031 666.082031 379.375 680.53125 366.59375 C 687.207031 360.6875 694.648438 356.382812 702.710938 352.910156 C 698.222656 358.519531 694.871094 364.953125 692.996094 371.929688 C 690.628906 380.746094 691.632812 390.007812 689.4375 398.8125 C 688.230469 403.664062 685.675781 407.035156 682.488281 410.753906 C 679.59375 414.140625 677.96875 417.636719 677.507812 422.089844 C 677.023438 426.769531 677.269531 431.398438 676.25 436.027344 C 675.261719 440.488281 673.617188 444.769531 671.550781 448.835938 C 667.394531 456.980469 661.765625 464.238281 655.933594 471.261719 C 656.511719 467.066406 656.804688 462.84375 656.71875 458.539062 C 656.710938 458.273438 656.273438 458.1875 656.234375 458.46875 C 655.492188 463.804688 654.539062 469.191406 653.261719 474.460938 C 653.234375 474.488281 653.210938 474.519531 653.191406 474.546875 C 652.671875 475.160156 652.582031 475.847656 652.742188 476.46875 C 652.402344 477.769531 652.0625 479.082031 651.667969 480.367188 C 650.570312 484 649.183594 487.566406 647.640625 491.039062 C 646.238281 494.1875 643.777344 497.53125 643.351562 500.953125 C 643.308594 501.292969 643.394531 501.582031 643.539062 501.820312 C 637.792969 507.625 632.273438 513.660156 627.03125 519.863281 C 612.886719 536.566406 600.40625 554.652344 589.480469 573.605469 C 589.660156 567.246094 589.515625 560.863281 588.84375 554.542969 C 588.476562 551.113281 587.976562 547.699219 587.371094 544.304688 C 587.320312 544.023438 587.277344 543.726562 587.226562 543.425781 C 588.019531 543.417969 588.816406 543.105469 589.40625 542.339844 C 602.464844 525.207031 607.761719 504.261719 606.28125 482.960938 C 606.078125 480.078125 605.878906 477.109375 606.355469 474.238281 C 606.824219 471.414062 607.796875 468.691406 608.691406 465.984375 C 610.433594 460.699219 611.59375 455.304688 612.113281 449.757812 C 613.160156 438.582031 611.550781 427.222656 608.773438 416.40625 C 607.15625 410.089844 604.902344 403.808594 604.601562 397.238281 C 604.476562 394.371094 604.738281 391.46875 605.488281 388.695312 C 606.109375 386.421875 607.207031 384.484375 608.402344 382.527344 C 608.894531 382.210938 609.378906 381.894531 609.890625 381.605469 C 611.066406 380.933594 610.035156 379.34375 608.859375 379.835938 C 598.175781 384.363281 591.746094 394.515625 587.582031 404.925781 C 582.714844 417.101562 581.273438 430.292969 576.847656 442.605469 C 574.523438 449.082031 570.929688 454.707031 567.421875 460.574219 C 563.855469 466.546875 561.445312 472.75 560.3125 479.625 C 559.199219 486.410156 559.164062 493.285156 559.359375 500.136719 C 559.554688 507.164062 559.828125 514.21875 561.0625 521.15625 C 563.472656 534.660156 570.761719 547.945312 584.425781 552.59375 C 585.011719 552.789062 585.53125 552.789062 585.984375 552.652344 C 586.066406 553.554688 586.171875 554.457031 586.246094 555.359375 C 586.859375 562.566406 587.03125 569.785156 586.691406 577.015625 C 586.671875 577.417969 586.808594 577.714844 587.023438 577.925781 C 574.652344 599.976562 564.085938 623.195312 556.804688 647.421875 C 556.53125 648.316406 556.292969 649.21875 556.03125 650.109375 C 555.859375 648.144531 555.640625 646.1875 555.402344 644.273438 C 554.726562 638.867188 553.738281 633.535156 552.242188 628.289062 C 550.785156 623.210938 548.929688 618.199219 546.621094 613.441406 C 545.386719 610.894531 544.015625 608.410156 542.550781 605.996094 C 542.398438 605.746094 542.246094 605.492188 542.09375 605.238281 C 542.425781 605.152344 542.714844 604.921875 542.832031 604.511719 C 545.710938 594.472656 544.714844 582.984375 542.945312 572.8125 C 541.105469 562.226562 537.589844 551.835938 532.515625 542.355469 C 527.226562 532.464844 520.074219 524.253906 512.601562 516 C 508.691406 511.683594 504.894531 507.242188 501.992188 502.171875 C 499.207031 497.3125 497.335938 492.015625 496.089844 486.570312 C 493.238281 474.011719 493.792969 460.957031 494.378906 448.179688 C 494.492188 445.851562 491.542969 445.550781 490.386719 447.101562 C 483.210938 456.683594 478.136719 467.816406 475.589844 479.515625 C 472.984375 491.5 473.339844 503.480469 475.503906 515.496094 C 476.695312 522.117188 478.253906 528.664062 479.378906 535.292969 C 480.511719 541.964844 480.441406 548.523438 480.96875 555.230469 C 481.457031 561.367188 483.523438 566.601562 487.851562 571.050781 C 492.132812 575.46875 497.367188 579.027344 502.195312 582.804688 C 514.820312 592.691406 527.441406 602.589844 540.058594 612.488281 C 540.867188 613.117188 541.777344 613.160156 542.550781 612.878906 C 542.75 613.296875 542.96875 613.703125 543.15625 614.121094 C 545.414062 619.015625 547.335938 624.035156 548.792969 629.234375 C 550.199219 634.265625 551.28125 639.457031 551.746094 644.65625 C 552.234375 650.085938 551.875 655.414062 551.757812 660.84375 C 551.738281 661.667969 552.097656 662.210938 552.589844 662.542969 C 547.421875 682.382812 543.269531 702.472656 537.019531 722.039062 C 530.351562 742.921875 522.128906 763.3125 512.472656 783.007812 C 511.433594 785.117188 510.378906 787.226562 509.3125 789.320312 C 509.59375 786.230469 509.867188 783.140625 510.113281 780.042969 C 510.675781 773.039062 511.210938 766.027344 511.46875 759.007812 C 511.714844 752.140625 511.875 745.261719 511.945312 738.386719 C 511.960938 736.761719 512.191406 734.25 511.84375 732.089844 C 519.878906 724.386719 521.0625 712.644531 520.75 702.046875 C 520.332031 687.855469 518.808594 673.597656 517.625 659.457031 C 516.464844 645.644531 514.761719 631.609375 509.339844 618.726562 C 503.746094 605.449219 494.753906 593.757812 486.683594 581.917969 C 481.789062 574.746094 476.933594 567.535156 471.996094 560.386719 C 469.613281 556.933594 467.210938 553.496094 464.820312 550.046875 C 462.851562 547.214844 461.105469 544.304688 458.605469 541.996094 C 458.570312 541.878906 458.542969 541.757812 458.511719 541.640625 C 457.941406 539.589844 455.035156 540.484375 455.378906 542.5 C 457.957031 557.621094 456.601562 572.839844 457.359375 588.070312 C 457.71875 595.304688 458.613281 602.597656 460.800781 609.535156 C 462.972656 616.394531 466.472656 622.699219 469.84375 629.023438 C 473.339844 635.59375 476.507812 642.222656 477.949219 649.574219 C 479.480469 657.378906 479.421875 665.394531 479.777344 673.308594 C 480.347656 686.101562 482.316406 698.992188 487.269531 710.863281 C 489.988281 717.367188 493.578125 723.453125 498.289062 728.71875 C 500.332031 731.007812 502.808594 733.9375 505.660156 735.203125 C 506.792969 735.707031 508.105469 735.816406 509.246094 735.519531 C 509.246094 735.570312 509.238281 735.636719 509.238281 735.699219 C 509.109375 738.839844 508.964844 741.976562 508.804688 745.109375 C 508.480469 751.238281 508.019531 757.355469 507.652344 763.484375 C 507.289062 769.601562 506.84375 775.722656 506.332031 781.832031 C 506.085938 784.808594 505.8125 787.789062 505.535156 790.765625 C 505.3125 793.054688 504.785156 795.585938 504.777344 797.976562 C 488.742188 827.796875 469.339844 855.835938 446.878906 881.171875 C 451.910156 866.152344 453.683594 850.144531 451.621094 834.433594 C 456.476562 829.4375 458.261719 822.535156 460.058594 815.949219 C 462.375 807.488281 464.632812 799.003906 466.582031 790.453125 C 470.402344 773.6875 473.15625 756.386719 472.140625 739.144531 C 471.171875 722.601562 466.308594 707.105469 459.0625 692.269531 C 451.851562 677.496094 442.953125 663.609375 435.835938 648.785156 C 427.851562 632.136719 421.652344 613.371094 424.207031 594.691406 C 424.53125 592.300781 422.011719 590.429688 420.019531 592.257812 C 408.414062 602.886719 402.828125 618.105469 400.972656 633.421875 C 398.734375 651.863281 402.316406 670.339844 404.804688 688.558594 C 406.121094 698.226562 406.90625 707.914062 407.109375 717.664062 C 407.316406 727.648438 407.109375 737.628906 407.28125 747.605469 C 407.570312 764.496094 409.035156 781.578125 415.25 797.4375 C 421.253906 812.757812 431.332031 826.824219 446.292969 834.40625 C 447.21875 834.875 448.113281 834.757812 448.8125 834.332031 C 450.667969 852.261719 448.34375 870.550781 441.398438 887.238281 C 440.402344 888.320312 439.40625 889.417969 438.398438 890.488281 C 408.738281 921.996094 373.835938 948.800781 335.066406 968.152344 C 330.3125 970.527344 325.503906 972.78125 320.648438 974.925781 C 316.871094 976.605469 320.148438 982.09375 323.894531 980.476562 C 363.816406 963.199219 400.0625 938.300781 431.238281 908.039062 C 435.34375 904.054688 439.351562 899.980469 443.269531 895.824219 C 443.796875 896.039062 444.402344 896.074219 444.980469 895.742188 C 449.917969 892.882812 454.621094 889.800781 459.804688 887.382812 C 465.125 884.898438 470.675781 882.898438 476.347656 881.367188 C 481.882812 879.867188 487.550781 878.796875 493.246094 878.210938 C 496.074219 877.910156 498.910156 877.734375 501.753906 877.671875 C 502.878906 877.648438 504.007812 877.683594 505.140625 877.699219 C 505.480469 878.183594 506 878.550781 506.75 878.582031 C 524.5625 879.46875 542.367188 880.523438 560.175781 881.476562 C 576.949219 882.378906 593.695312 882.636719 609.957031 877.785156 C 639.773438 868.890625 663.851562 848.210938 687.53125 828.960938 C 695.738281 822.289062 704.054688 815.675781 712.742188 809.625 C 719.558594 806.554688 725.996094 802.648438 731.796875 797.71875 C 733.890625 795.933594 731.214844 792.894531 728.96875 794.0625 C 721.730469 797.8125 714.878906 802.121094 708.261719 806.742188 C 686.859375 815.617188 661.785156 815.828125 639.015625 816.007812 C 621.207031 816.144531 603.179688 816.375 585.769531 820.570312 C 570.367188 824.289062 555.910156 831.300781 542.730469 840 C 528.085938 849.667969 514.660156 861.15625 502.058594 873.332031 C 501.828125 873.332031 501.589844 873.339844 501.371094 873.339844 C 498.398438 873.375 495.4375 873.546875 492.480469 873.835938 C 486.496094 874.421875 480.578125 875.527344 474.78125 877.136719 C 467.195312 879.246094 459.292969 882.175781 452.125 886.105469 C 470.703125 865.085938 487.039062 842.136719 501.105469 817.847656 C 501.8125 817.839844 502.535156 817.566406 503.011719 816.9375 C 504.554688 814.886719 505.882812 813.03125 507.984375 811.488281 C 510.140625 809.90625 512.539062 808.699219 514.96875 807.609375 C 519.84375 805.414062 524.894531 803.652344 529.5 800.878906 C 539.171875 795.046875 546.878906 786.632812 555.46875 779.414062 C 559.921875 775.679688 564.714844 772.257812 569.96875 769.738281 C 570.300781 769.984375 570.71875 770.140625 571.238281 770.148438 C 601.84375 770.734375 633.976562 770.988281 661.894531 756.625 C 675.898438 749.417969 688.390625 739.59375 702.90625 733.324219 C 717.464844 727.035156 732.824219 722.957031 747.121094 715.988281 C 754.765625 712.261719 762.183594 708.023438 769.179688 703.1875 C 772.664062 700.789062 776.058594 698.261719 779.371094 695.625 C 780.863281 694.441406 782.394531 693.257812 783.816406 691.980469 C 785.058594 691.453125 786.269531 690.847656 787.390625 690.101562 C 789.332031 688.816406 788.082031 686.007812 785.84375 686.425781 C 781.78125 687.191406 777.925781 688.808594 773.90625 689.800781 C 769.851562 690.796875 765.730469 691.523438 761.585938 692 C 753.257812 692.953125 744.871094 693.054688 736.503906 692.882812 C 719.765625 692.535156 703.066406 691.367188 686.363281 693.078125 C 654.199219 696.371094 622.523438 707.707031 596.03125 726.355469 C 588.628906 731.5625 581.8125 737.46875 576.320312 744.683594 C 570.988281 751.6875 567.03125 759.644531 564.527344 768.078125 C 564.441406 768.359375 564.425781 768.617188 564.449219 768.855469 C 556.191406 773.347656 549.269531 779.882812 542.21875 786.136719 C 537.75 790.09375 533.171875 793.957031 528.035156 797.046875 C 523.113281 800 517.734375 801.738281 512.472656 803.957031 C 510.871094 804.628906 509.1875 805.429688 507.542969 806.347656 C 507.960938 805.582031 508.394531 804.828125 508.800781 804.050781 C 519.105469 784.707031 528 764.605469 535.453125 743.996094 C 539.777344 732.023438 543.429688 719.902344 546.722656 707.675781 C 547.089844 707.621094 547.429688 707.496094 547.710938 707.230469 C 549.023438 705.980469 550.011719 704.492188 551.433594 703.324219 C 552.71875 702.277344 554.148438 701.410156 555.613281 700.644531 C 558.992188 698.859375 562.636719 697.589844 566.230469 696.3125 C 574.132812 693.511719 582.210938 691.496094 590.222656 689.097656 C 595.144531 691.863281 600.644531 693.445312 606.152344 694.644531 C 612.113281 695.9375 618.207031 696.566406 624.3125 696.550781 C 636.863281 696.507812 648.96875 693.597656 660.394531 688.492188 C 666.550781 685.742188 672.503906 682.550781 678.648438 679.761719 C 684.890625 676.925781 691.335938 674.570312 697.867188 672.492188 C 710.925781 668.339844 724.320312 665.277344 737.617188 662.015625 C 753.582031 658.109375 769.527344 654.136719 785.476562 650.144531 C 788.644531 649.355469 787.308594 644.453125 784.121094 645.242188 C 782.871094 645.558594 781.609375 645.871094 780.359375 646.1875 C 765.699219 643.386719 751.035156 640.589844 736.375 637.796875 C 721.433594 634.945312 706.414062 631.269531 691.214844 630.128906 C 676.316406 629.015625 662.132812 632.0625 648.230469 637.285156 C 641.691406 639.746094 635.261719 642.511719 628.859375 645.292969 C 622.917969 647.871094 616.972656 650.628906 611.695312 654.441406 C 606.042969 658.519531 601.835938 663.703125 598.117188 669.539062 C 596.191406 672.5625 594.378906 675.667969 592.394531 678.652344 C 590.582031 681.386719 588.390625 683.8125 586.484375 686.457031 C 578.414062 688.066406 570.4375 690.722656 562.738281 693.453125 C 558.398438 694.992188 552.710938 696.917969 548.683594 700.175781 C 550.761719 692.066406 552.710938 683.914062 554.601562 675.726562 C 557.734375 662.136719 561.070312 648.578125 565.683594 635.40625 C 566.972656 631.730469 568.351562 628.09375 569.78125 624.476562 C 574.113281 622.894531 578.269531 620.539062 582.5 618.691406 C 587.25 616.625 592.003906 614.523438 596.804688 612.582031 C 600.898438 610.929688 605.039062 609.382812 609.167969 607.816406 C 621.589844 613.636719 635.679688 615.296875 649.199219 613.082031 C 661.929688 611 673.847656 605.664062 685.410156 600.15625 C 697.089844 594.597656 708.644531 588.386719 721.117188 584.761719 C 734.359375 580.914062 749.257812 582.257812 761.363281 574.992188 C 767.816406 571.121094 773.089844 565.628906 778.230469 560.21875 C 781.378906 556.898438 784.53125 553.582031 787.691406 550.261719 C 788.992188 548.890625 790.363281 547.53125 791.664062 546.125 C 792.339844 545.757812 793.011719 545.386719 793.675781 544.96875 C 794.550781 544.421875 794.746094 543.539062 794.535156 542.753906 C 795.148438 541.945312 795.71875 541.113281 796.230469 540.226562 C 796.773438 539.273438 795.660156 538.066406 794.679688 538.679688 C 793.054688 539.71875 791.605469 540.96875 790.234375 542.296875 C 778.640625 548.824219 764.929688 547.988281 752.050781 547.019531 C 745.152344 546.5 738.257812 545.84375 731.335938 545.921875 C 723.398438 546.015625 715.515625 546.917969 707.664062 547.988281 C 691.660156 550.167969 675.601562 552.3125 659.65625 554.898438 C 652.699219 556.03125 645.707031 557.683594 639.597656 561.316406 C 634.75 564.191406 630.605469 568.105469 627.027344 572.421875 C 618.496094 582.71875 612.648438 594.898438 604.933594 605.765625 C 601.757812 606.871094 598.617188 608.070312 595.484375 609.3125 C 591.039062 611.082031 586.597656 612.894531 582.277344 614.964844 C 578.761719 616.648438 574.972656 618.257812 571.507812 620.222656 C 574.660156 612.574219 578.074219 605.03125 581.75 597.621094 C 591.976562 577.027344 603.871094 557.230469 617.578125 538.753906 C 618.445312 537.582031 619.347656 536.433594 620.234375 535.265625 C 622.371094 535.769531 624.269531 534.253906 626.136719 533.335938 C 628.195312 532.3125 630.289062 531.386719 632.375 530.414062 C 636.847656 528.320312 641.417969 526.375 646.117188 524.867188 C 651.386719 523.171875 656.761719 522 662.148438 520.890625 C 671.054688 530.773438 684.015625 535.503906 697.210938 534.515625 C 704.890625 533.945312 712.5 532.117188 719.941406 530.210938 C 727.460938 528.28125 734.886719 525.988281 742.277344 523.640625 C 749.921875 521.207031 757.550781 518.738281 765.1875 516.289062 C 772.484375 513.941406 779.992188 511.777344 787.027344 508.699219 C 797.804688 503.984375 805.269531 495.191406 811.1875 485.277344 C 817.796875 474.195312 822.714844 461.96875 831.09375 452.027344 C 832.761719 450.046875 829.996094 447.175781 828.207031 449.144531 C 813.800781 464.953125 797.445312 482.621094 775.378906 486.554688 C 768.941406 487.703125 762.367188 487.292969 755.871094 487.117188 C 749.359375 486.9375 742.921875 487.242188 736.46875 488.1875 C 723.742188 490.042969 711.359375 493.964844 699.28125 498.289062 C 685.589844 503.191406 672.273438 508.976562 659.398438 515.742188 C 658.351562 516.296875 658.386719 517.371094 658.929688 518.101562 C 654.113281 518.859375 649.34375 520.023438 644.730469 521.316406 C 640.046875 522.636719 635.414062 524.03125 630.894531 525.828125 C 629.21875 526.492188 627.574219 527.25 625.949219 528.03125 C 651.429688 496.460938 682.957031 469.320312 720.078125 452.488281 C 722.234375 451.507812 724.40625 450.5625 726.585938 449.636719 C 726.796875 449.96875 727.105469 450.25 727.570312 450.402344 C 739.414062 454.15625 751.878906 452.035156 763.433594 448.292969 C 774.605469 444.675781 785.644531 440.308594 796.460938 435.730469 C 807.023438 431.253906 817.371094 426.113281 826.769531 419.503906 C 831.417969 416.234375 835.75 412.601562 839.882812 408.710938 C 844.417969 404.4375 848.878906 400.253906 854.246094 397.019531 C 860.144531 393.460938 866.445312 390.550781 872.59375 387.453125 C 879.316406 384.066406 885.976562 380.535156 892.660156 377.0625 C 894.96875 375.886719 893.332031 372.363281 890.90625 372.96875 Z M 540.652344 603.09375 C 539.785156 601.824219 538.824219 600.632812 537.648438 599.671875 C 537.011719 599.144531 535.792969 599.613281 536.117188 600.566406 C 536.660156 602.15625 537.488281 603.628906 538.339844 605.074219 C 529.261719 598.019531 520.175781 590.964844 511.109375 583.902344 C 505.890625 579.832031 500.605469 575.851562 495.460938 571.691406 C 490.964844 568.046875 487.074219 564.089844 485.933594 558.210938 C 484.769531 552.167969 485.378906 545.800781 484.589844 539.683594 C 483.773438 533.367188 482.417969 527.15625 481.132812 520.925781 C 478.65625 508.925781 477.0625 496.988281 479.046875 484.785156 C 480.722656 474.460938 484.394531 464.613281 489.789062 455.714844 C 489.535156 464.425781 489.605469 473.148438 490.863281 481.789062 C 492.488281 492.859375 496.507812 503.054688 503.429688 511.898438 C 510.453125 520.875 518.890625 528.515625 525.039062 538.195312 C 530.828125 547.300781 535.152344 557.300781 537.792969 567.757812 C 539.292969 573.691406 540.21875 579.730469 540.613281 585.832031 C 540.984375 591.59375 540.628906 597.332031 540.652344 603.09375 Z M 448.0625 828.671875 C 448.113281 828.988281 448.148438 829.300781 448.191406 829.617188 C 420.402344 815.191406 413.285156 781.058594 412.371094 752.453125 C 411.777344 733.691406 412.832031 714.898438 410.730469 696.195312 C 408.6875 678.015625 404.617188 659.890625 405.3125 641.507812 C 405.859375 627.117188 409.597656 612.230469 418.722656 600.957031 C 417.769531 631.285156 435.792969 657.820312 449.894531 683.667969 C 457.796875 698.140625 464.625 713.1875 467.082031 729.621094 C 469.636719 746.683594 467.976562 764.179688 464.785156 781.039062 C 462.964844 790.664062 460.628906 800.1875 458.179688 809.667969 C 456.3125 816.859375 454.890625 824.800781 451.121094 831.351562 C 450.933594 830.230469 450.726562 829.113281 450.507812 827.992188 C 450.191406 826.375 447.824219 827.089844 448.0625 828.671875 Z M 583.53125 825.4375 C 616.949219 816.425781 652.0625 823.308594 685.929688 817.550781 C 689.566406 816.925781 693.175781 816.152344 696.734375 815.21875 C 682.269531 826.347656 668.519531 838.492188 653.6875 849.164062 C 641.519531 857.929688 628.519531 865.871094 614.359375 870.976562 C 598.644531 876.644531 582.441406 877.589844 565.871094 876.992188 C 547.628906 876.34375 529.382812 875.46875 511.152344 874.566406 C 510.941406 874.304688 510.675781 874.082031 510.328125 873.980469 C 509.152344 873.632812 507.910156 873.476562 506.664062 873.402344 C 529.644531 853.53125 553.585938 833.503906 583.53125 825.4375 Z M 596.242188 731.503906 C 609.125 722.117188 623.496094 714.585938 638.386719 708.949219 C 653.285156 703.308594 668.917969 699.488281 684.761719 697.757812 C 701.035156 695.988281 717.289062 696.941406 733.601562 697.410156 C 742.777344 697.675781 752 697.75 761.152344 696.832031 C 765.417969 696.40625 769.664062 695.769531 773.855469 694.847656 C 772.355469 695.9375 770.847656 697.003906 769.316406 698.039062 C 763.160156 702.234375 756.765625 706.132812 750.175781 709.613281 C 736.230469 716.976562 721.324219 721.46875 706.6875 727.171875 C 699.425781 729.996094 692.46875 733.359375 685.769531 737.332031 C 679.144531 741.253906 672.742188 745.542969 666.082031 749.417969 C 652.714844 757.1875 638.292969 761.875 622.992188 764.027344 C 605.863281 766.445312 588.460938 766.085938 571.210938 765.714844 C 570.46875 765.695312 569.925781 765.984375 569.566406 766.417969 C 569.429688 766.480469 569.296875 766.539062 569.152344 766.597656 C 574.226562 752.214844 583.898438 740.496094 596.242188 731.503906 Z M 507.875 727.910156 C 507.390625 727.894531 507.296875 728.515625 507.644531 728.761719 C 507.847656 728.90625 508.011719 729.085938 508.171875 729.273438 C 508.128906 729.308594 508.097656 729.347656 508.054688 729.390625 C 507.753906 729.648438 507.585938 729.9375 507.464844 730.226562 C 507.234375 730.082031 507.023438 729.917969 506.785156 729.730469 C 505.644531 728.820312 504.589844 727.800781 503.558594 726.769531 C 501.515625 724.71875 499.648438 722.488281 497.988281 720.117188 C 494.644531 715.308594 492.054688 710.003906 490.113281 704.492188 C 485.960938 692.652344 484.835938 680.296875 484.332031 667.847656 C 484.042969 660.636719 483.695312 653.351562 482.019531 646.308594 C 480.449219 639.753906 477.503906 633.667969 474.347656 627.753906 C 471.164062 621.804688 467.722656 615.925781 465.515625 609.515625 C 463.226562 602.878906 462.230469 595.902344 461.804688 588.914062 C 460.996094 575.417969 462.28125 561.519531 459.933594 548.140625 C 460.359375 548.789062 460.792969 549.425781 461.234375 550.089844 C 463.390625 553.332031 465.542969 556.574219 467.695312 559.808594 C 471.757812 565.917969 475.894531 571.980469 480.007812 578.054688 C 487.917969 589.75 496.621094 601.238281 503.148438 613.78125 C 509.550781 626.085938 512.046875 639.601562 513.308594 653.300781 C 514.601562 667.429688 515.402344 681.625 516.363281 695.777344 C 517.105469 706.722656 517.511719 719.878906 509.296875 728.199219 C 508.878906 728.03125 508.417969 727.929688 507.875 727.910156 Z M 598.421875 675.164062 C 601.65625 669.992188 604.832031 664.738281 609.34375 660.554688 C 614.089844 656.152344 619.859375 653.03125 625.691406 650.324219 C 631.96875 647.414062 638.386719 644.742188 644.816406 642.1875 C 658.148438 636.886719 671.890625 632.886719 686.363281 633.292969 C 701.398438 633.730469 716.308594 637.421875 731.011719 640.339844 C 744.539062 643.03125 758.070312 645.71875 771.597656 648.402344 C 761.859375 650.84375 752.109375 653.300781 742.378906 655.796875 C 729.265625 659.15625 716.078125 662.316406 703.121094 666.238281 C 690.460938 670.074219 678.503906 675.105469 666.722656 681.070312 C 654.921875 687.046875 643.027344 691.800781 629.710938 692.847656 C 622.890625 693.386719 616.011719 693.097656 609.261719 692.015625 C 603.410156 691.078125 597.84375 689.265625 592.207031 687.582031 C 592.285156 686.753906 591.660156 685.863281 590.640625 685.800781 C 593.808594 682.816406 596.234375 678.664062 598.421875 675.164062 Z M 626.714844 578.695312 C 630.195312 573.953125 634.171875 569.417969 639.027344 566.039062 C 644.765625 562.039062 651.421875 560.089844 658.242188 558.863281 C 673.773438 556.074219 689.539062 554.285156 705.164062 552.089844 C 713.113281 550.976562 721.101562 549.945312 729.136719 549.777344 C 736.289062 549.621094 743.410156 550.285156 750.527344 550.90625 C 761.339844 551.851562 772.738281 552.574219 783.175781 549.597656 L 778.589844 554.355469 C 773.835938 559.28125 769.179688 564.449219 763.722656 568.609375 C 758.195312 572.832031 752.066406 575.214844 745.238281 576.378906 C 738.4375 577.542969 731.53125 577.886719 724.789062 579.398438 C 700.164062 584.921875 679.398438 600.539062 655.074219 606.792969 C 648.222656 608.554688 641.1875 609.425781 634.113281 609.007812 C 628.09375 608.65625 622.203125 607.246094 616.589844 605.082031 C 619.121094 604.128906 621.589844 603.074219 623.929688 601.628906 C 624.160156 601.484375 624.074219 601.09375 623.785156 601.101562 C 619.859375 601.1875 616.199219 602.207031 612.503906 603.347656 C 611.917969 603.074219 611.328125 602.8125 610.75 602.523438 C 610.300781 602.300781 609.855469 602.214844 609.429688 602.222656 C 616.113281 595.160156 620.96875 586.515625 626.714844 578.695312 Z M 586.160156 537.894531 C 585.777344 536.414062 585.269531 534.992188 584.476562 533.769531 C 584.238281 533.394531 583.734375 533.574219 583.683594 533.980469 C 583.421875 536.269531 583.878906 538.671875 584.355469 541.011719 C 584.347656 541.316406 584.40625 541.613281 584.535156 541.886719 C 584.6875 542.636719 584.832031 543.375 584.945312 544.109375 C 585.097656 545.09375 585.199219 546.089844 585.328125 547.078125 C 574.753906 543 568.953125 531.835938 566.613281 521.34375 C 565.148438 514.789062 564.722656 508.050781 564.324219 501.363281 C 563.941406 494.859375 563.652344 488.296875 564.367188 481.804688 C 565.089844 475.191406 567.304688 469.109375 570.632812 463.371094 C 573.636719 458.207031 576.90625 453.269531 579.222656 447.738281 C 584.101562 436.070312 585.625 423.441406 589.183594 411.382812 C 591.960938 401.972656 596.445312 392.667969 603.726562 386.074219 C 602.984375 387.792969 602.476562 389.621094 602.195312 391.359375 C 601.351562 396.441406 602.050781 401.597656 603.179688 406.574219 C 604.484375 412.300781 606.238281 417.902344 607.320312 423.6875 C 608.417969 429.542969 608.910156 435.535156 608.800781 441.492188 C 608.691406 447.246094 607.957031 452.964844 606.375 458.503906 C 604.832031 463.882812 602.089844 468.9375 601.207031 474.503906 C 600.296875 480.195312 601.460938 485.992188 601.425781 491.71875 C 601.394531 497.046875 600.824219 502.347656 599.699219 507.558594 C 597.324219 518.535156 592.699219 528.816406 586.160156 537.894531 Z M 668.953125 514.953125 L 668.789062 515.121094 C 668.570312 515.359375 668.851562 515.710938 669.132812 515.566406 C 669.386719 515.429688 669.652344 515.292969 669.90625 515.164062 C 670.035156 515.097656 670.160156 515.027344 670.296875 514.960938 C 670.367188 514.925781 670.425781 514.894531 670.492188 514.859375 C 670.527344 514.839844 670.554688 514.824219 670.585938 514.808594 C 670.84375 514.738281 671.089844 514.664062 671.335938 514.585938 C 671.464844 514.542969 671.582031 514.5 671.695312 514.425781 C 671.753906 514.382812 671.8125 514.339844 671.871094 514.289062 C 671.992188 514.203125 672.113281 514.109375 672.222656 514.023438 C 672.417969 513.878906 672.570312 513.726562 672.648438 513.480469 C 672.664062 513.410156 672.65625 513.335938 672.664062 513.257812 C 680.820312 509.566406 689.105469 506.117188 697.5 503.039062 C 709.929688 498.484375 722.683594 494.332031 735.789062 492.246094 C 742.445312 491.191406 749.121094 490.894531 755.847656 491.089844 C 762.257812 491.277344 768.652344 491.601562 775.019531 490.648438 C 785.648438 489.054688 795.445312 484.101562 804.019531 477.769531 C 808.285156 474.621094 812.277344 471.160156 816.117188 467.523438 C 814.40625 470.613281 812.738281 473.730469 811.035156 476.816406 C 805.910156 486.085938 800.113281 495.632812 790.976562 501.472656 C 785.078125 505.234375 778.195312 507.03125 771.589844 509.113281 C 764.140625 511.464844 756.714844 513.898438 749.28125 516.3125 C 735.183594 520.902344 721.050781 525.683594 706.457031 528.449219 C 698.574219 529.949219 690.425781 530.652344 682.644531 528.261719 C 677.175781 526.578125 672.273438 523.597656 668.179688 519.691406 C 670.121094 519.292969 672.050781 518.875 673.984375 518.425781 C 674.554688 518.289062 674.375 517.496094 673.855469 517.453125 C 671.226562 517.222656 668.585938 517.222656 665.9375 517.378906 C 665.785156 517.199219 665.613281 517.039062 665.460938 516.859375 C 665.410156 516.800781 665.351562 516.757812 665.292969 516.695312 C 666.507812 516.117188 667.726562 515.523438 668.953125 514.953125 Z M 855.949219 390.320312 C 850.863281 393.042969 846.164062 396.210938 841.855469 400.046875 C 837.625 403.816406 833.675781 407.878906 829.253906 411.433594 C 811.613281 425.636719 789.519531 433.757812 768.492188 441.5 C 756.867188 445.78125 744.175781 449.824219 731.761719 447.558594 C 733.003906 447.066406 734.238281 446.539062 735.5 446.070312 C 737.679688 445.253906 736.785156 441.757812 734.519531 442.53125 C 732.714844 443.152344 730.925781 443.796875 729.140625 444.472656 C 735.96875 439.253906 741.664062 432.121094 747.09375 425.792969 C 754.730469 416.890625 762.496094 407.902344 772.398438 401.425781 C 793.914062 387.367188 820.382812 384.96875 845.347656 383.113281 C 855.597656 382.347656 865.859375 381.574219 876.03125 380.175781 C 869.289062 383.445312 862.554688 386.773438 855.949219 390.320312 Z M 855.949219 390.320312 " fill-opacity="1" fill-rule="nonzero"/></svg>