<svg xmlns="http://www.w3.org/2000/svg" xmlns:xlink="http://www.w3.org/1999/xlink" width="500" zoomAndPan="magnify" viewBox="0 0 375 374.999991" height="500" preserveAspectRatio="xMidYMid meet" version="1.0"><defs><g/><clipPath id="id1"><path d="M 95.992188 88.167969 L 278.992188 88.167969 L 278.992188 154.167969 L 95.992188 154.167969 Z M 95.992188 88.167969 " clip-rule="nonzero"/></clipPath><clipPath id="id2"><path d="M 95.992188 211.875 L 278.992188 211.875 L 278.992188 277.6875 L 95.992188 277.6875 Z M 95.992188 211.875 " clip-rule="nonzero"/></clipPath></defs><g clip-path="url(#id1)"><path fill="#000000" d="M 187.492188 88.1875 C 214.140625 88.1875 238.261719 99.019531 255.722656 116.53125 C 266.148438 126.984375 274.199219 139.820312 278.992188 154.15625 L 277.585938 154.15625 C 272.839844 140.191406 264.960938 127.683594 254.78125 117.476562 C 237.5625 100.207031 213.769531 89.523438 187.492188 89.523438 C 161.214844 89.523438 137.421875 100.207031 120.203125 117.476562 C 110.027344 127.683594 102.144531 140.191406 97.398438 154.15625 L 95.992188 154.15625 C 100.789062 139.824219 108.839844 126.988281 119.261719 116.53125 C 136.722656 99.019531 160.847656 88.1875 187.492188 88.1875 Z M 187.492188 88.1875 " fill-opacity="1" fill-rule="evenodd"/></g><g clip-path="url(#id2)"><path fill="#000000" d="M 187.492188 277.667969 C 214.140625 277.667969 238.261719 266.835938 255.722656 249.324219 C 266.148438 238.871094 274.199219 226.035156 278.992188 211.699219 L 277.585938 211.699219 C 272.839844 225.664062 264.960938 238.171875 254.78125 248.378906 C 237.5625 265.648438 213.769531 276.332031 187.492188 276.332031 C 161.214844 276.332031 137.421875 265.648438 120.203125 248.378906 C 110.027344 238.171875 102.144531 225.664062 97.398438 211.699219 L 95.992188 211.699219 C 100.789062 226.03125 108.839844 238.867188 119.261719 249.324219 C 136.722656 266.835938 160.847656 277.667969 187.492188 277.667969 Z M 187.492188 277.667969 " fill-opacity="1" fill-rule="evenodd"/></g><g fill="#000000" fill-opacity="1"><g transform="translate(24.250299, 186.631629)"><g><path d="M 52.953125 -26.4375 C 54.015625 -31.683594 54.058594 -36.894531 52.597656 -42.0625 C 51.019531 -47.625 47.546875 -51.648438 42.179688 -53.820312 C 38.707031 -55.242188 35.15625 -54.964844 31.605469 -54.136719 C 25.765625 -52.714844 20.871094 -49.597656 16.53125 -45.613281 C 12.191406 -41.589844 8.917969 -36.773438 6.035156 -31.683594 C 3.550781 -27.226562 1.777344 -22.570312 1.300781 -17.441406 C 0.433594 -7.8125 6.429688 0.511719 15.863281 2.566406 C 16.175781 2.644531 16.375 2.761719 16.492188 3.078125 C 16.730469 3.789062 17.085938 4.457031 17.480469 5.128906 C 19.570312 8.839844 23.199219 10.457031 27.304688 9.546875 C 29.828125 8.996094 31.960938 7.65625 33.933594 6.078125 C 37.523438 3.195312 40.484375 -0.316406 43.085938 -4.183594 C 43.363281 -4.539062 43.640625 -4.734375 44.113281 -4.734375 C 46.402344 -4.894531 48.652344 -4.65625 50.941406 -4.417969 C 51.292969 -4.417969 51.648438 -4.339844 51.964844 -4.183594 C 52.203125 -4.0625 52.558594 -3.984375 52.675781 -4.300781 C 52.753906 -4.578125 52.398438 -4.695312 52.164062 -4.8125 C 51.925781 -4.933594 51.6875 -4.972656 51.414062 -5.050781 C 49.085938 -5.523438 46.757812 -5.917969 44.230469 -5.839844 C 44.46875 -6.234375 44.625 -6.472656 44.824219 -6.746094 C 48.847656 -12.746094 51.570312 -19.335938 52.953125 -26.4375 Z M 38.511719 -1.027344 C 36.0625 1.894531 33.578125 4.734375 30.34375 6.824219 C 28.960938 7.695312 27.5 8.40625 25.882812 8.71875 C 24.070312 9.113281 22.492188 8.640625 21.1875 7.300781 C 20.003906 6.15625 19.335938 4.734375 18.742188 3.273438 C 18.664062 3.039062 18.625 2.839844 18.941406 2.878906 C 23.59375 3.078125 27.5 0.90625 31.449219 -1.027344 C 34.328125 -2.445312 37.207031 -3.710938 40.363281 -4.261719 C 40.523438 -4.300781 40.679688 -4.378906 40.878906 -4.261719 C 40.128906 -3.117188 39.339844 -2.050781 38.511719 -1.027344 Z M 42.0625 -6.035156 C 41.902344 -5.800781 41.824219 -5.601562 41.46875 -5.5625 C 37.207031 -5.128906 33.421875 -3.355469 29.632812 -1.5 C 27.148438 -0.277344 24.738281 1.027344 22.015625 1.617188 C 20.992188 1.855469 19.925781 1.972656 18.859375 1.933594 C 18.425781 1.933594 18.230469 1.816406 18.109375 1.339844 C 17.046875 -2.289062 16.964844 -5.996094 17.675781 -9.707031 C 19.214844 -17.480469 22.765625 -24.304688 27.699219 -30.5 C 30.027344 -33.421875 32.472656 -36.261719 35.472656 -38.550781 C 36.65625 -39.417969 37.917969 -40.207031 39.339844 -40.679688 C 40.089844 -40.917969 40.167969 -40.878906 40.363281 -40.089844 C 40.40625 -39.890625 40.445312 -39.695312 40.679688 -39.65625 C 40.957031 -39.617188 41.074219 -39.773438 41.195312 -39.96875 C 41.429688 -40.484375 41.390625 -40.878906 40.878906 -41.152344 C 40.089844 -41.628906 39.261719 -41.628906 38.390625 -41.429688 C 36.339844 -40.878906 34.644531 -39.695312 33.027344 -38.390625 C 29.910156 -35.789062 27.34375 -32.632812 24.820312 -29.433594 C 20.636719 -24.109375 17.636719 -18.191406 15.863281 -11.640625 C 14.71875 -7.417969 14.597656 -3.15625 15.824219 1.066406 C 15.980469 1.695312 15.742188 1.617188 15.308594 1.5 C 12.625 0.75 10.457031 -0.867188 8.523438 -2.800781 C 5.640625 -5.722656 4.183594 -9.351562 3.75 -13.375 C 3.15625 -18.742188 4.417969 -23.832031 6.707031 -28.644531 C 9.667969 -34.800781 13.257812 -40.484375 18.191406 -45.257812 C 22.175781 -49.085938 26.792969 -52.042969 32.238281 -53.464844 C 34.917969 -54.136719 37.683594 -54.492188 40.363281 -53.703125 C 44.664062 -52.398438 47.625 -49.519531 49.597656 -45.613281 C 51.375 -42.0625 51.925781 -38.234375 51.886719 -34.484375 C 51.925781 -28.6875 50.464844 -23.398438 48.492188 -18.191406 C 46.835938 -13.890625 44.664062 -9.824219 42.0625 -6.035156 Z M 42.0625 -6.035156 "/></g></g></g><g fill="#000000" fill-opacity="1"><g transform="translate(79.845327, 186.631629)"><g><path d="M -1.144531 17.558594 C 0.199219 14.441406 1.539062 11.324219 2.839844 8.207031 C 3.039062 7.695312 3.273438 7.535156 3.789062 7.65625 C 5.011719 7.929688 6.195312 8.128906 7.417969 8.324219 C 8.128906 8.445312 8.839844 8.523438 9.589844 8.601562 C 9.746094 8.601562 9.984375 8.640625 10.023438 8.40625 C 10.101562 8.207031 9.863281 8.128906 9.746094 8.011719 C 9.667969 7.96875 9.628906 7.929688 9.589844 7.929688 C 8.089844 7.378906 6.589844 6.785156 5.011719 6.628906 C 3.550781 6.429688 3.472656 6.589844 4.183594 5.050781 C 5.484375 2.210938 6.867188 -0.632812 8.324219 -3.433594 C 9.589844 -5.839844 10.96875 -8.167969 12.507812 -10.417969 C 12.785156 -10.851562 13.140625 -11.246094 13.453125 -11.679688 C 13.535156 -11.796875 13.652344 -11.957031 13.453125 -12.152344 C 13.058594 -12.507812 11.71875 -12.664062 11.246094 -12.351562 C 10.613281 -11.917969 10.023438 -11.480469 9.429688 -10.96875 C 9.074219 -10.691406 8.839844 -10.613281 8.445312 -10.96875 C 7.417969 -11.71875 6.273438 -11.957031 5.050781 -11.5625 C 4.378906 -11.363281 3.75 -11.085938 3.15625 -10.652344 C 1.027344 -9.152344 -0.632812 -7.222656 -1.855469 -4.894531 C -2.367188 -3.867188 -2.878906 -2.800781 -2.878906 -1.617188 C -2.917969 -0.199219 -1.539062 0.671875 -0.277344 0 C 0.078125 -0.199219 0.433594 -0.433594 0.75 -0.710938 C 2.445312 -2.289062 4.0625 -3.984375 5.683594 -5.640625 C 6.472656 -6.390625 7.179688 -7.140625 8.128906 -7.695312 C 8.089844 -7.179688 7.734375 -6.824219 7.496094 -6.390625 C 5.207031 -2.644531 3.3125 1.339844 1.578125 5.367188 C 1.300781 6.078125 1.300781 6.078125 0.511719 5.996094 C -0.945312 5.878906 -2.40625 5.839844 -3.867188 5.957031 C -7.890625 6.3125 -11.679688 7.378906 -15.308594 9.074219 C -20.519531 11.523438 -25.132812 14.757812 -28.84375 19.214844 C -31.011719 21.859375 -32.75 24.699219 -33.460938 28.132812 C -34.089844 31.09375 -34.171875 33.972656 -33.144531 36.8125 C -32.511719 38.550781 -31.722656 40.207031 -30.105469 41.3125 C -26.792969 43.523438 -23.242188 43.875 -19.53125 42.417969 C -17.046875 41.46875 -14.992188 39.851562 -13.140625 37.957031 C -9.863281 34.683594 -7.535156 30.816406 -5.367188 26.792969 C -3.75 23.832031 -2.484375 20.636719 -1.144531 17.558594 Z M 7.574219 -9.46875 C 5.050781 -7.261719 2.960938 -4.617188 0.550781 -2.289062 C 0.078125 -1.855469 -0.355469 -1.421875 -1.027344 -1.027344 C -1.144531 -1.65625 -0.90625 -2.050781 -0.710938 -2.484375 C 0.199219 -4.578125 1.617188 -6.3125 3.3125 -7.851562 C 4.222656 -8.757812 5.246094 -9.507812 6.429688 -10.023438 C 6.707031 -10.140625 6.984375 -10.257812 7.300781 -10.257812 C 7.535156 -10.21875 7.734375 -10.101562 7.8125 -9.902344 C 7.929688 -9.667969 7.734375 -9.589844 7.574219 -9.46875 Z M -12.269531 34.089844 C -13.847656 36.339844 -15.664062 38.351562 -17.875 39.96875 C -19.769531 41.390625 -21.898438 42.257812 -24.304688 42.378906 C -25.882812 42.417969 -27.34375 42.0625 -28.6875 41.273438 C -29.988281 40.484375 -30.699219 39.222656 -31.289062 37.917969 C -32.117188 36.183594 -32.511719 34.328125 -32.433594 32.472656 C -32.394531 27.777344 -30.617188 23.832031 -27.699219 20.28125 C -23.910156 15.703125 -19.175781 12.46875 -13.808594 10.101562 C -10.140625 8.445312 -6.3125 7.300781 -2.25 7.222656 C -1.421875 7.179688 -0.632812 7.179688 0.15625 7.261719 C 0.671875 7.300781 0.75 7.417969 0.550781 7.890625 C 0.238281 8.640625 -0.078125 9.351562 -0.394531 10.101562 C -2.050781 13.929688 -3.667969 17.796875 -5.367188 21.582031 C -7.339844 25.921875 -9.546875 30.183594 -12.269531 34.089844 Z M -12.269531 34.089844 "/></g></g></g><g fill="#000000" fill-opacity="1"><g transform="translate(97.995587, 186.631629)"><g><path d="M 2.445312 -3.511719 C 2.484375 -3.589844 2.523438 -3.628906 2.566406 -3.710938 C 3.433594 -4.578125 4.023438 -5.601562 4.5 -6.746094 C 4.933594 -7.773438 5.167969 -8.839844 5.050781 -9.984375 C 4.851562 -11.757812 3.433594 -12.902344 1.65625 -12.664062 C 0.15625 -12.46875 -1.066406 -11.757812 -1.972656 -10.574219 C -2.445312 -9.984375 -2.761719 -9.3125 -2.800781 -8.5625 C -2.839844 -7.378906 -2.566406 -6.273438 -1.933594 -5.289062 C -1.695312 -4.933594 -1.695312 -4.695312 -1.894531 -4.339844 C -2.25 -3.710938 -2.484375 -3.039062 -2.484375 -2.289062 C -2.445312 -1.066406 -1.339844 -0.433594 -0.316406 -1.066406 C -0.199219 -1.105469 -0.117188 -1.183594 0 -1.261719 C 0.511719 -1.65625 1.066406 -2.050781 1.539062 -2.523438 C 1.695312 -2.683594 1.816406 -2.761719 2.050781 -2.722656 C 4.339844 -1.816406 10.257812 -3.394531 15.664062 -6.746094 C 15.546875 -6.785156 15.269531 -6.984375 14.953125 -6.785156 C 12.269531 -5.207031 7.773438 -3.828125 7.023438 -3.667969 C 3.945312 -3.078125 2.40625 -3.3125 2.40625 -3.3125 C 2.445312 -3.472656 2.445312 -3.511719 2.445312 -3.511719 Z M 0.355469 -2.917969 C -0.117188 -2.40625 -0.59375 -1.933594 -1.300781 -1.734375 C -1.382812 -1.816406 -1.382812 -1.894531 -1.339844 -2.011719 C -1.222656 -2.523438 -1.027344 -3.039062 -0.75 -3.511719 C -0.632812 -3.710938 -0.511719 -3.75 -0.316406 -3.589844 C -0.117188 -3.472656 0.078125 -3.355469 0.316406 -3.234375 C 0.433594 -3.15625 0.472656 -3.039062 0.355469 -2.917969 Z M 1.382812 -4.0625 C 1.300781 -3.984375 1.261719 -3.867188 1.183594 -3.828125 C 1.066406 -3.789062 1.066406 -3.789062 0.671875 -3.984375 C -0.355469 -4.5 -0.15625 -4.417969 0.15625 -4.894531 C 0.59375 -5.445312 1.105469 -5.917969 1.617188 -6.351562 C 2.128906 -6.785156 2.171875 -6.867188 1.894531 -7.261719 C 1.539062 -7.773438 1.066406 -7.890625 0.632812 -7.617188 C 0.15625 -7.300781 -0.199219 -6.945312 -0.511719 -6.511719 C -0.75 -6.195312 -1.027344 -5.839844 -1.300781 -5.445312 C -2.839844 -7.496094 -1.027344 -11.402344 1.972656 -11.207031 C 1.972656 -11.207031 3.90625 -10.96875 3.3125 -8.128906 C 3 -6.628906 2.40625 -5.207031 1.382812 -4.0625 Z M 1.382812 -4.0625 "/></g></g></g><g fill="#000000" fill-opacity="1"><g transform="translate(112.831454, 186.631629)"><g><path d="M 24.03125 -6.15625 C 21.820312 -5.011719 19.769531 -3.667969 17.914062 -2.011719 C 15.46875 0.15625 13.335938 2.644531 11.128906 5.050781 C 9.984375 6.3125 8.757812 7.535156 7.261719 8.363281 C 6.429688 8.878906 5.996094 8.640625 5.878906 7.734375 C 5.839844 7.457031 5.839844 7.179688 5.878906 6.90625 C 5.957031 6.351562 6.078125 5.800781 6.234375 5.289062 C 6.945312 2.960938 7.96875 0.75 9.113281 -1.421875 C 10.179688 -3.511719 11.285156 -5.601562 12.351562 -7.695312 C 12.824219 -8.601562 13.179688 -9.628906 13.375 -10.613281 C 13.652344 -11.835938 13.101562 -12.46875 11.835938 -12.46875 C 11.128906 -12.429688 10.535156 -12.113281 9.941406 -11.757812 C 8.089844 -10.535156 6.472656 -8.957031 4.851562 -7.457031 C 3.628906 -6.3125 2.445312 -5.089844 1.027344 -4.105469 C 1.066406 -5.289062 1.339844 -6.429688 1.734375 -7.496094 C 3.195312 -11.523438 4.851562 -15.46875 6.746094 -19.292969 C 7.890625 -21.78125 9.195312 -24.148438 10.496094 -26.515625 C 13.058594 -31.171875 15.824219 -35.75 18.742188 -40.167969 C 19.453125 -41.234375 20.082031 -42.378906 20.675781 -43.523438 C 20.953125 -44.074219 20.832031 -44.269531 20.242188 -44.46875 C 19.53125 -44.707031 19.019531 -44.546875 18.546875 -43.875 C 17.597656 -42.496094 16.652344 -41.152344 15.742188 -39.8125 C 12.46875 -34.839844 9.429688 -29.75 6.707031 -24.503906 C 4.417969 -20.003906 2.25 -15.46875 0.394531 -10.773438 C -0.433594 -8.71875 -1.105469 -6.628906 -1.183594 -4.417969 C -1.261719 -3.117188 -0.59375 -2.523438 0.671875 -2.644531 C 1.144531 -2.683594 1.539062 -2.878906 1.933594 -3.15625 C 2.328125 -3.511719 2.722656 -3.828125 3.078125 -4.183594 C 4.933594 -5.917969 6.707031 -7.734375 8.640625 -9.351562 C 9.46875 -10.023438 10.296875 -10.734375 11.285156 -11.128906 C 11.480469 -10.851562 11.363281 -10.613281 11.246094 -10.378906 C 11.046875 -9.863281 10.8125 -9.3125 10.574219 -8.800781 C 9.707031 -6.824219 8.523438 -5.050781 7.574219 -3.15625 C 6.390625 -0.90625 5.246094 1.300781 4.617188 3.75 C 4.300781 5.050781 3.984375 6.351562 4.339844 7.734375 C 4.617188 8.839844 5.207031 9.3125 6.351562 9.3125 C 7.261719 9.351562 8.050781 8.996094 8.71875 8.445312 C 9.546875 7.851562 10.296875 7.179688 11.007812 6.472656 C 12.824219 4.617188 14.640625 2.800781 16.453125 0.90625 C 19.019531 -1.695312 21.742188 -4.0625 24.9375 -5.839844 C 25.132812 -5.957031 25.410156 -6.035156 25.332031 -6.351562 C 24.699219 -6.472656 24.699219 -6.472656 24.03125 -6.15625 Z M 24.03125 -6.15625 "/></g></g></g><g fill="#000000" fill-opacity="1"><g transform="translate(137.058103, 186.631629)"><g/></g></g><g fill="#000000" fill-opacity="1"><g transform="translate(152.840934, 186.631629)"><g><path d="M 10.535156 8.757812 C 10.734375 8.839844 11.046875 8.800781 11.128906 9.074219 C 11.363281 9.589844 11.796875 9.507812 12.191406 9.46875 C 12.46875 9.429688 12.707031 9.351562 12.980469 9.390625 C 16.453125 9.863281 19.886719 9.546875 23.28125 8.800781 C 28.210938 7.695312 32.867188 5.878906 37.328125 3.550781 C 37.601562 3.394531 37.878906 3.234375 38.195312 3.3125 C 51.453125 5.089844 57.765625 -3.511719 60.765625 -3.90625 C 60.921875 -3.984375 61.160156 -4.0625 61.082031 -4.261719 C 61 -4.457031 60.765625 -4.5 60.566406 -4.457031 C 60.371094 -4.417969 60.171875 -4.339844 60.015625 -4.261719 C 56.226562 -2.445312 51.53125 3 39.617188 2.605469 C 39.535156 2.605469 39.417969 2.605469 39.378906 2.445312 C 40.011719 2.050781 40.640625 1.65625 41.234375 1.222656 C 44.625 -1.144531 47.664062 -3.867188 49.835938 -7.417969 C 51.292969 -9.863281 52.28125 -12.429688 52.164062 -15.347656 C 52.042969 -18.191406 50.386719 -20.28125 47.625 -20.992188 C 46.757812 -21.226562 45.808594 -21.308594 44.902344 -21.308594 C 44.746094 -21.308594 44.546875 -21.1875 44.429688 -21.425781 C 45.691406 -22.609375 46.953125 -23.832031 48.019531 -25.175781 C 50.230469 -27.894531 51.964844 -30.894531 52.359375 -34.445312 C 52.875 -38.707031 50.78125 -42.023438 46.71875 -43.363281 C 45.179688 -43.875 43.5625 -44.035156 41.941406 -43.957031 C 41.746094 -43.917969 41.546875 -43.835938 41.3125 -44.074219 C 40.800781 -44.585938 40.050781 -44.507812 39.574219 -43.917969 C 39.417969 -43.679688 39.222656 -43.5625 38.945312 -43.480469 C 29.476562 -41.113281 13.769531 -30.027344 16.925781 -21.621094 C 17.164062 -21.070312 17.519531 -20.714844 18.152344 -20.753906 C 18.347656 -20.753906 18.503906 -20.753906 18.464844 -21.070312 C 17.636719 -32.511719 29.789062 -40.128906 38.945312 -42.417969 C 38.785156 -41.902344 38.667969 -41.546875 38.550781 -41.152344 C 37.011719 -35.75 35.039062 -30.460938 32.472656 -25.410156 C 29.355469 -19.375 25.371094 -13.890625 21.148438 -8.5625 C 20.914062 -8.246094 20.714844 -8.285156 20.4375 -8.484375 C 19.136719 -9.273438 17.757812 -9.785156 16.335938 -10.21875 C 8.207031 -12.707031 0.117188 -8.757812 2.089844 -0.59375 C 3.273438 4.339844 5.640625 7.101562 10.535156 8.757812 Z M 22.726562 -7.734375 C 25.132812 -10.851562 27.621094 -13.890625 29.871094 -17.125 C 35.15625 -24.582031 39.0625 -32.671875 40.996094 -41.628906 C 41.273438 -43.046875 41.273438 -43.046875 42.773438 -43.007812 C 47.152344 -42.96875 50.070312 -39.96875 50.070312 -35.550781 C 50.109375 -33.695312 49.597656 -31.921875 48.808594 -30.265625 C 47.191406 -26.753906 44.824219 -23.792969 41.941406 -21.269531 C 41.628906 -20.953125 41.234375 -20.792969 40.839844 -20.675781 C 38.472656 -20.003906 36.261719 -19.019531 34.089844 -17.796875 C 33.539062 -17.480469 33.027344 -17.125 32.550781 -16.691406 C 32.355469 -16.492188 32.078125 -16.257812 32.277344 -15.980469 C 32.433594 -15.703125 32.789062 -15.625 33.105469 -15.742188 C 35.039062 -16.375 37.089844 -16.808594 38.945312 -17.796875 C 39.96875 -18.386719 40.957031 -19.019531 42.023438 -19.570312 C 43.835938 -20.519531 45.769531 -20.597656 47.703125 -19.847656 C 48.570312 -19.53125 49.007812 -18.703125 49.28125 -17.835938 C 49.992188 -15.546875 49.558594 -13.375 48.652344 -11.285156 C 47.546875 -8.640625 45.808594 -6.351562 43.835938 -4.300781 C 41.667969 -1.972656 39.140625 0.0390625 36.457031 1.734375 C 36.105469 1.972656 35.789062 2.011719 35.394531 1.894531 C 32.867188 1.027344 30.660156 -0.472656 28.644531 -2.171875 C 26.710938 -3.789062 24.78125 -5.328125 22.804688 -6.824219 C 22.410156 -7.140625 22.410156 -7.339844 22.726562 -7.734375 Z M 21.148438 -5.683594 C 21.503906 -6.117188 21.664062 -6.117188 22.097656 -5.800781 C 24.820312 -3.867188 27.226562 -1.578125 30.066406 0.15625 C 31.605469 1.105469 33.183594 2.011719 35.039062 2.605469 C 34.011719 3.15625 33.105469 3.667969 32.199219 4.105469 C 28.726562 5.800781 25.214844 7.300781 21.425781 8.128906 C 18.859375 8.679688 16.296875 8.917969 13.691406 8.71875 C 13.21875 8.679688 12.902344 8.679688 13.179688 8.050781 C 15.429688 3.234375 17.835938 -1.460938 21.148438 -5.683594 Z M 6.667969 -9.3125 C 8.207031 -9.902344 9.746094 -10.21875 11.285156 -10.179688 C 14.402344 -10.21875 17.125 -9.195312 19.648438 -7.617188 C 20.082031 -7.339844 20.042969 -7.140625 19.769531 -6.785156 C 17.085938 -3.355469 12.035156 3.472656 11.402344 7.8125 C 11.363281 8.128906 11.246094 8.246094 10.890625 8.128906 C 6.429688 6.824219 2.605469 2.210938 2.445312 -2.40625 C 2.289062 -5.367188 3.589844 -8.089844 6.667969 -9.3125 Z M 6.667969 -9.3125 "/></g></g></g><g fill="#000000" fill-opacity="1"><g transform="translate(214.038863, 186.631629)"><g><path d="M 17.757812 -6.785156 C 15.941406 -5.878906 14.246094 -4.8125 12.707031 -3.472656 C 10.652344 -1.734375 8.679688 0.15625 6.707031 2.011719 C 5.167969 3.511719 3.628906 5.011719 1.816406 6.195312 C 1.105469 6.667969 0.316406 7.023438 -0.511719 7.222656 C -1.261719 7.339844 -1.421875 7.261719 -1.734375 6.589844 C -2.011719 5.957031 -2.050781 5.289062 -2.050781 4.617188 C -2.128906 2.722656 -1.578125 0.945312 -1.027344 -0.789062 C -0.0390625 -3.789062 1.222656 -6.628906 2.644531 -9.390625 C 3.078125 -10.257812 3.550781 -11.085938 3.984375 -11.957031 L 4.023438 -11.957031 C 14.324219 -23.476562 24.582031 -40.324219 24.820312 -43.167969 C 25.054688 -43.796875 24.226562 -45.179688 23.554688 -44.625 C 23.242188 -44.351562 22.886719 -44.074219 22.609375 -43.757812 C 20.714844 -41.667969 18.859375 -39.535156 17.085938 -37.328125 C 14.992188 -34.761719 13.101562 -32.039062 11.285156 -29.238281 C 9.46875 -26.359375 7.695312 -23.515625 5.996094 -20.558594 C 4.0625 -17.242188 2.25 -13.890625 0.550781 -10.457031 C -0.59375 -8.246094 -1.65625 -5.996094 -2.484375 -3.628906 C -3.273438 -1.339844 -3.828125 0.945312 -3.828125 3.394531 C -3.828125 4.339844 -3.628906 5.207031 -3.273438 6.035156 C -2.644531 7.617188 -1.183594 8.324219 0.472656 7.890625 C 0.789062 7.8125 1.105469 7.65625 1.421875 7.535156 C 2.40625 7.0625 3.234375 6.390625 4.0625 5.722656 C 6.550781 3.710938 8.800781 1.5 11.085938 -0.710938 C 12.191406 -1.734375 13.296875 -2.839844 14.441406 -3.867188 C 15.78125 -5.050781 17.28125 -5.996094 19.058594 -6.785156 C 18.503906 -7.140625 18.109375 -6.984375 17.757812 -6.785156 Z M 6.90625 -17.320312 C 9.429688 -21.78125 12.113281 -26.121094 14.953125 -30.421875 C 17.203125 -33.777344 19.769531 -36.933594 22.253906 -40.128906 C 22.726562 -40.71875 23.199219 -41.3125 23.675781 -41.902344 C 22.765625 -39.929688 20.914062 -36.65625 18.03125 -32.117188 C 14.125 -25.964844 9.746094 -19.964844 5.683594 -15.113281 C 6.078125 -15.863281 6.511719 -16.613281 6.90625 -17.320312 Z M 6.90625 -17.320312 "/></g></g></g><g fill="#000000" fill-opacity="1"><g transform="translate(231.55781, 186.631629)"><g><path d="M 7.574219 1.617188 C 11.285156 0.238281 18.941406 -5.601562 26.316406 -6.589844 C 26.082031 -7.101562 25.726562 -7.101562 25.410156 -7.101562 C 18.980469 -6.390625 10.535156 -0.828125 8.050781 0.355469 C 6.945312 0.867188 5.800781 1.222656 4.539062 1.339844 C 3.628906 1.421875 2.800781 1.222656 2.171875 0.472656 C 0.671875 -1.460938 0.550781 -3.472656 1.539062 -5.640625 C 1.734375 -6.078125 1.972656 -6.3125 2.523438 -6.15625 C 3.273438 -5.957031 4.023438 -5.996094 4.773438 -6.234375 C 6.3125 -6.746094 7.574219 -7.695312 8.71875 -8.800781 C 8.917969 -8.996094 9.035156 -9.195312 9.152344 -9.429688 C 9.46875 -10.0625 9.351562 -10.691406 8.757812 -11.128906 C 7.8125 -11.796875 6.785156 -12.191406 5.640625 -11.835938 C 2.683594 -10.96875 0.433594 -9.234375 -0.671875 -6.273438 C -1.339844 -4.457031 -1.144531 -2.722656 -0.199219 -1.144531 C 1.734375 2.011719 4.023438 2.960938 7.574219 1.617188 Z M 7.496094 -10.335938 C 7.023438 -8.878906 4.457031 -7.261719 2.878906 -7.417969 C 3.511719 -8.800781 6.078125 -10.417969 7.496094 -10.335938 Z M 7.496094 -10.335938 "/></g></g></g><g fill="#000000" fill-opacity="1"><g transform="translate(257.283829, 186.631629)"><g><path d="M 4.65625 3.984375 C 4.539062 4.261719 4.300781 4.578125 4.578125 4.851562 C 4.851562 5.167969 5.207031 5.089844 5.601562 5.011719 C 5.878906 4.972656 6.078125 4.773438 6.234375 4.578125 C 6.867188 3.789062 7.496094 3.039062 7.8125 2.089844 C 7.929688 1.734375 8.167969 1.460938 8.40625 1.183594 C 10.335938 -0.671875 12.269531 -2.523438 14.480469 -4.105469 C 14.640625 -4.222656 14.914062 -4.300781 14.796875 -4.578125 C 14.679688 -4.8125 14.363281 -4.8125 14.125 -4.734375 C 13.890625 -4.617188 13.652344 -4.5 13.414062 -4.339844 C 12.546875 -3.789062 11.71875 -3.15625 10.929688 -2.484375 C 10.101562 -1.777344 9.273438 -1.066406 8.363281 -0.277344 C 7.496094 -1.972656 6.589844 -2.445312 4.773438 -2.25 C 4.5 -2.25 4.222656 -2.171875 3.945312 -2.128906 C 3.472656 -1.972656 3.039062 -1.855469 2.566406 -1.695312 C 1.894531 -1.5 1.222656 -1.261719 0.550781 -1.066406 C 0 -0.945312 -0.117188 -1.105469 -0.15625 -1.617188 C -0.15625 -2.128906 -0.0390625 -2.605469 0.117188 -3.039062 C 0.671875 -4.5 1.339844 -5.878906 2.25 -7.101562 C 3.078125 -8.207031 3.945312 -9.234375 5.246094 -9.863281 C 6.117188 -10.257812 6.511719 -10.140625 6.984375 -9.3125 C 7.261719 -8.757812 7.300781 -8.167969 7.222656 -7.535156 C 7.140625 -6.867188 7.535156 -6.511719 8.128906 -6.628906 C 8.523438 -6.707031 8.679688 -7.023438 8.71875 -7.339844 C 8.996094 -9.234375 8.5625 -10.613281 6.390625 -11.128906 C 5.128906 -11.402344 3.90625 -11.128906 2.800781 -10.496094 C 1.734375 -9.863281 0.867188 -8.996094 0.117188 -8.011719 C -0.988281 -6.472656 -1.816406 -4.8125 -2.367188 -3.039062 C -2.800781 -1.539062 -2.171875 -0.511719 -0.671875 -0.15625 C -0.59375 -0.15625 -0.472656 -0.15625 -0.394531 -0.117188 C 0.59375 0.078125 1.539062 -0.117188 2.484375 -0.433594 C 3.394531 -0.75 4.339844 -0.988281 5.328125 -1.222656 C 5.683594 -1.300781 5.957031 -1.183594 6.15625 -0.828125 C 6.707031 0.078125 6.589844 1.5 5.800781 2.25 C 5.246094 2.761719 4.894531 3.3125 4.65625 3.984375 Z M 4.65625 3.984375 "/></g></g></g><g fill="#000000" fill-opacity="1"><g transform="translate(272.553703, 186.631629)"><g><path d="M 4.65625 3.984375 C 4.539062 4.261719 4.300781 4.578125 4.578125 4.851562 C 4.851562 5.167969 5.207031 5.089844 5.601562 5.011719 C 5.878906 4.972656 6.078125 4.773438 6.234375 4.578125 C 6.867188 3.789062 7.496094 3.039062 7.8125 2.089844 C 7.929688 1.734375 8.167969 1.460938 8.40625 1.183594 C 10.335938 -0.671875 12.269531 -2.523438 14.480469 -4.105469 C 14.640625 -4.222656 14.914062 -4.300781 14.796875 -4.578125 C 14.679688 -4.8125 14.363281 -4.8125 14.125 -4.734375 C 13.890625 -4.617188 13.652344 -4.5 13.414062 -4.339844 C 12.546875 -3.789062 11.71875 -3.15625 10.929688 -2.484375 C 10.101562 -1.777344 9.273438 -1.066406 8.363281 -0.277344 C 7.496094 -1.972656 6.589844 -2.445312 4.773438 -2.25 C 4.5 -2.25 4.222656 -2.171875 3.945312 -2.128906 C 3.472656 -1.972656 3.039062 -1.855469 2.566406 -1.695312 C 1.894531 -1.5 1.222656 -1.261719 0.550781 -1.066406 C 0 -0.945312 -0.117188 -1.105469 -0.15625 -1.617188 C -0.15625 -2.128906 -0.0390625 -2.605469 0.117188 -3.039062 C 0.671875 -4.5 1.339844 -5.878906 2.25 -7.101562 C 3.078125 -8.207031 3.945312 -9.234375 5.246094 -9.863281 C 6.117188 -10.257812 6.511719 -10.140625 6.984375 -9.3125 C 7.261719 -8.757812 7.300781 -8.167969 7.222656 -7.535156 C 7.140625 -6.867188 7.535156 -6.511719 8.128906 -6.628906 C 8.523438 -6.707031 8.679688 -7.023438 8.71875 -7.339844 C 8.996094 -9.234375 8.5625 -10.613281 6.390625 -11.128906 C 5.128906 -11.402344 3.90625 -11.128906 2.800781 -10.496094 C 1.734375 -9.863281 0.867188 -8.996094 0.117188 -8.011719 C -0.988281 -6.472656 -1.816406 -4.8125 -2.367188 -3.039062 C -2.800781 -1.539062 -2.171875 -0.511719 -0.671875 -0.15625 C -0.59375 -0.15625 -0.472656 -0.15625 -0.394531 -0.117188 C 0.59375 0.078125 1.539062 -0.117188 2.484375 -0.433594 C 3.394531 -0.75 4.339844 -0.988281 5.328125 -1.222656 C 5.683594 -1.300781 5.957031 -1.183594 6.15625 -0.828125 C 6.707031 0.078125 6.589844 1.5 5.800781 2.25 C 5.246094 2.761719 4.894531 3.3125 4.65625 3.984375 Z M 4.65625 3.984375 "/></g></g></g><g fill="#000000" fill-opacity="1"><g transform="translate(287.823599, 186.631629)"><g><path d="M 3.15625 -9.507812 C 2.644531 -9.941406 2.210938 -9.941406 1.695312 -9.46875 C 1.5 -9.273438 1.300781 -9.074219 1.105469 -8.878906 C -1.300781 -5.640625 -3.195312 -2.210938 -3.589844 1.894531 C -3.75 2.960938 -3.710938 4.023438 -3.472656 5.089844 C -3.273438 5.917969 -2.917969 6.746094 -2.367188 7.457031 C -1.261719 8.757812 -0.0390625 8.917969 1.382812 8.011719 C 1.617188 7.851562 1.855469 7.617188 2.089844 7.417969 C 4.105469 5.722656 5.878906 3.789062 7.695312 1.894531 C 9.902344 -0.433594 12.3125 -2.40625 15.230469 -3.828125 C 16.886719 -4.617188 18.464844 -5.484375 20.203125 -6.117188 C 20.359375 -6.15625 20.519531 -6.195312 20.476562 -6.390625 C 20.476562 -6.550781 20.320312 -6.628906 20.164062 -6.628906 C 19.847656 -6.667969 19.609375 -6.550781 19.375 -6.429688 C 18.464844 -6.035156 17.558594 -5.640625 16.691406 -5.207031 C 14.953125 -4.378906 13.140625 -3.628906 11.480469 -2.566406 C 9.074219 -1.105469 7.023438 0.828125 5.089844 2.878906 C 3.984375 3.984375 3 5.207031 1.695312 6.078125 C 0.945312 6.589844 0.238281 7.101562 -0.710938 7.140625 C -1.421875 7.179688 -1.617188 7.023438 -1.777344 6.351562 C -1.972656 5.523438 -1.972656 4.695312 -1.894531 3.867188 C -1.578125 0.789062 -0.394531 -2.011719 1.183594 -4.65625 C 1.894531 -5.839844 2.644531 -6.90625 3.355469 -8.050781 C 3.710938 -8.640625 3.628906 -9.113281 3.15625 -9.507812 Z M 4.972656 -11.441406 C 5.328125 -11.324219 5.5625 -11.5625 5.523438 -11.917969 C 5.523438 -12.507812 4.851562 -13.101562 4.183594 -13.179688 C 3.828125 -13.21875 3.628906 -12.980469 3.75 -12.625 C 3.945312 -12.035156 4.417969 -11.640625 4.972656 -11.441406 Z M 4.972656 -11.441406 "/></g></g></g><g fill="#000000" fill-opacity="1"><g transform="translate(307.749409, 186.631629)"><g><path d="M 25.449219 -7.457031 C 25.292969 -7.457031 25.132812 -7.378906 25.015625 -7.339844 C 23.476562 -6.589844 21.9375 -5.800781 20.476562 -4.933594 C 18.425781 -3.667969 16.375 -2.40625 14.164062 -1.339844 C 13.058594 -0.828125 11.917969 -0.238281 10.691406 -0.0390625 C 9.390625 0.15625 9.113281 -0.117188 9.234375 -1.382812 C 9.234375 -1.460938 9.234375 -1.578125 9.234375 -1.65625 C 9.390625 -2.644531 9.707031 -3.550781 10.140625 -4.417969 C 10.734375 -5.683594 11.363281 -6.90625 11.996094 -8.128906 C 12.3125 -8.757812 12.546875 -9.390625 12.746094 -10.0625 C 12.980469 -10.96875 12.625 -11.679688 11.957031 -12.269531 C 11.285156 -12.824219 10.652344 -12.585938 10.023438 -12.230469 C 9.3125 -11.835938 8.71875 -11.324219 8.128906 -10.773438 C 5.996094 -8.878906 3.984375 -6.867188 2.011719 -4.851562 C 1.65625 -4.457031 1.300781 -4.105469 0.671875 -3.945312 C 0.710938 -4.5 0.90625 -4.933594 1.105469 -5.367188 C 1.617188 -6.511719 2.289062 -7.574219 3 -8.601562 C 3.667969 -9.46875 3.472656 -10.257812 2.605469 -10.8125 C 2.210938 -11.046875 1.894531 -11.046875 1.578125 -10.734375 C -0.078125 -9.113281 -1.105469 -7.222656 -1.027344 -4.8125 C -0.988281 -4.0625 -0.710938 -3.433594 -0.238281 -2.878906 C 0.316406 -2.25 0.828125 -2.171875 1.5 -2.683594 C 1.777344 -2.878906 2.050781 -3.078125 2.289062 -3.3125 C 4.222656 -5.246094 6.035156 -7.339844 8.128906 -9.113281 C 8.996094 -9.863281 9.824219 -10.574219 11.128906 -11.007812 C 10.613281 -9.746094 9.941406 -8.757812 9.351562 -7.773438 C 8.246094 -5.878906 7.773438 -3.867188 7.96875 -1.734375 C 8.128906 0.078125 9.507812 1.695312 11.835938 0.867188 C 13.140625 0.394531 14.402344 -0.15625 15.585938 -0.828125 C 17.875 -2.050781 20.003906 -3.433594 22.214844 -4.734375 C 23.359375 -5.367188 24.464844 -5.996094 25.570312 -6.628906 C 25.726562 -6.746094 26.003906 -6.785156 25.921875 -7.101562 C 25.84375 -7.300781 25.6875 -7.457031 25.449219 -7.457031 Z M 25.449219 -7.457031 "/></g></g></g><g fill="#000000" fill-opacity="1"><g transform="translate(332.607371, 186.631629)"><g><path d="M -1.144531 17.558594 C 0.199219 14.441406 1.539062 11.324219 2.839844 8.207031 C 3.039062 7.695312 3.273438 7.535156 3.789062 7.65625 C 5.011719 7.929688 6.195312 8.128906 7.417969 8.324219 C 8.128906 8.445312 8.839844 8.523438 9.589844 8.601562 C 9.746094 8.601562 9.984375 8.640625 10.023438 8.40625 C 10.101562 8.207031 9.863281 8.128906 9.746094 8.011719 C 9.667969 7.96875 9.628906 7.929688 9.589844 7.929688 C 8.089844 7.378906 6.589844 6.785156 5.011719 6.628906 C 3.550781 6.429688 3.472656 6.589844 4.183594 5.050781 C 5.484375 2.210938 6.867188 -0.632812 8.324219 -3.433594 C 9.589844 -5.839844 10.96875 -8.167969 12.507812 -10.417969 C 12.785156 -10.851562 13.140625 -11.246094 13.453125 -11.679688 C 13.535156 -11.796875 13.652344 -11.957031 13.453125 -12.152344 C 13.058594 -12.507812 11.71875 -12.664062 11.246094 -12.351562 C 10.613281 -11.917969 10.023438 -11.480469 9.429688 -10.96875 C 9.074219 -10.691406 8.839844 -10.613281 8.445312 -10.96875 C 7.417969 -11.71875 6.273438 -11.957031 5.050781 -11.5625 C 4.378906 -11.363281 3.75 -11.085938 3.15625 -10.652344 C 1.027344 -9.152344 -0.632812 -7.222656 -1.855469 -4.894531 C -2.367188 -3.867188 -2.878906 -2.800781 -2.878906 -1.617188 C -2.917969 -0.199219 -1.539062 0.671875 -0.277344 0 C 0.078125 -0.199219 0.433594 -0.433594 0.75 -0.710938 C 2.445312 -2.289062 4.0625 -3.984375 5.683594 -5.640625 C 6.472656 -6.390625 7.179688 -7.140625 8.128906 -7.695312 C 8.089844 -7.179688 7.734375 -6.824219 7.496094 -6.390625 C 5.207031 -2.644531 3.3125 1.339844 1.578125 5.367188 C 1.300781 6.078125 1.300781 6.078125 0.511719 5.996094 C -0.945312 5.878906 -2.40625 5.839844 -3.867188 5.957031 C -7.890625 6.3125 -11.679688 7.378906 -15.308594 9.074219 C -20.519531 11.523438 -25.132812 14.757812 -28.84375 19.214844 C -31.011719 21.859375 -32.75 24.699219 -33.460938 28.132812 C -34.089844 31.09375 -34.171875 33.972656 -33.144531 36.8125 C -32.511719 38.550781 -31.722656 40.207031 -30.105469 41.3125 C -26.792969 43.523438 -23.242188 43.875 -19.53125 42.417969 C -17.046875 41.46875 -14.992188 39.851562 -13.140625 37.957031 C -9.863281 34.683594 -7.535156 30.816406 -5.367188 26.792969 C -3.75 23.832031 -2.484375 20.636719 -1.144531 17.558594 Z M 7.574219 -9.46875 C 5.050781 -7.261719 2.960938 -4.617188 0.550781 -2.289062 C 0.078125 -1.855469 -0.355469 -1.421875 -1.027344 -1.027344 C -1.144531 -1.65625 -0.90625 -2.050781 -0.710938 -2.484375 C 0.199219 -4.578125 1.617188 -6.3125 3.3125 -7.851562 C 4.222656 -8.757812 5.246094 -9.507812 6.429688 -10.023438 C 6.707031 -10.140625 6.984375 -10.257812 7.300781 -10.257812 C 7.535156 -10.21875 7.734375 -10.101562 7.8125 -9.902344 C 7.929688 -9.667969 7.734375 -9.589844 7.574219 -9.46875 Z M -12.269531 34.089844 C -13.847656 36.339844 -15.664062 38.351562 -17.875 39.96875 C -19.769531 41.390625 -21.898438 42.257812 -24.304688 42.378906 C -25.882812 42.417969 -27.34375 42.0625 -28.6875 41.273438 C -29.988281 40.484375 -30.699219 39.222656 -31.289062 37.917969 C -32.117188 36.183594 -32.511719 34.328125 -32.433594 32.472656 C -32.394531 27.777344 -30.617188 23.832031 -27.699219 20.28125 C -23.910156 15.703125 -19.175781 12.46875 -13.808594 10.101562 C -10.140625 8.445312 -6.3125 7.300781 -2.25 7.222656 C -1.421875 7.179688 -0.632812 7.179688 0.15625 7.261719 C 0.671875 7.300781 0.75 7.417969 0.550781 7.890625 C 0.238281 8.640625 -0.078125 9.351562 -0.394531 10.101562 C -2.050781 13.929688 -3.667969 17.796875 -5.367188 21.582031 C -7.339844 25.921875 -9.546875 30.183594 -12.269531 34.089844 Z M -12.269531 34.089844 "/></g></g></g><g fill="#000000" fill-opacity="1"><g transform="translate(101.944582, 214.873344)"><g><path d="M 0.796875 0 L 0.796875 -6.390625 L 5 -6.390625 L 5 -5.828125 L 1.4375 -5.828125 L 1.4375 -3.484375 L 4.4375 -3.484375 L 4.4375 -2.96875 L 1.4375 -2.96875 L 1.4375 0 Z M 0.796875 0 "/></g></g></g><g fill="#000000" fill-opacity="1"><g transform="translate(110.845618, 214.873344)"><g><path d="M 0.796875 0 L 0.796875 -6.390625 L 3.5 -6.390625 C 3.78125 -6.390625 4.035156 -6.328125 4.265625 -6.203125 C 4.492188 -6.085938 4.691406 -5.9375 4.859375 -5.75 C 5.023438 -5.5625 5.15625 -5.347656 5.25 -5.109375 C 5.34375 -4.867188 5.390625 -4.628906 5.390625 -4.390625 C 5.390625 -4.148438 5.351562 -3.921875 5.28125 -3.703125 C 5.21875 -3.492188 5.125 -3.300781 5 -3.125 C 4.875 -2.957031 4.722656 -2.816406 4.546875 -2.703125 C 4.378906 -2.585938 4.1875 -2.507812 3.96875 -2.46875 L 5.53125 0 L 4.828125 0 L 3.328125 -2.359375 L 1.4375 -2.359375 L 1.4375 0 Z M 1.4375 -2.921875 L 3.515625 -2.921875 C 3.703125 -2.921875 3.867188 -2.957031 4.015625 -3.03125 C 4.171875 -3.113281 4.300781 -3.222656 4.40625 -3.359375 C 4.519531 -3.503906 4.609375 -3.660156 4.671875 -3.828125 C 4.734375 -4.003906 4.765625 -4.191406 4.765625 -4.390625 C 4.765625 -4.578125 4.726562 -4.757812 4.65625 -4.9375 C 4.582031 -5.113281 4.488281 -5.265625 4.375 -5.390625 C 4.257812 -5.523438 4.117188 -5.628906 3.953125 -5.703125 C 3.796875 -5.785156 3.632812 -5.828125 3.46875 -5.828125 L 1.4375 -5.828125 Z M 1.4375 -2.921875 "/></g></g></g><g fill="#000000" fill-opacity="1"><g transform="translate(120.322665, 214.873344)"><g><path d="M 3.375 0.046875 C 2.925781 0.046875 2.519531 -0.0390625 2.15625 -0.21875 C 1.789062 -0.40625 1.472656 -0.648438 1.203125 -0.953125 C 0.941406 -1.253906 0.738281 -1.597656 0.59375 -1.984375 C 0.445312 -2.378906 0.375 -2.78125 0.375 -3.1875 C 0.375 -3.613281 0.453125 -4.019531 0.609375 -4.40625 C 0.765625 -4.800781 0.972656 -5.148438 1.234375 -5.453125 C 1.503906 -5.753906 1.820312 -5.992188 2.1875 -6.171875 C 2.5625 -6.347656 2.960938 -6.4375 3.390625 -6.4375 C 3.828125 -6.4375 4.226562 -6.34375 4.59375 -6.15625 C 4.96875 -5.96875 5.285156 -5.71875 5.546875 -5.40625 C 5.804688 -5.101562 6.007812 -4.753906 6.15625 -4.359375 C 6.300781 -3.972656 6.375 -3.582031 6.375 -3.1875 C 6.375 -2.757812 6.296875 -2.347656 6.140625 -1.953125 C 5.984375 -1.566406 5.769531 -1.222656 5.5 -0.921875 C 5.238281 -0.628906 4.925781 -0.394531 4.5625 -0.21875 C 4.195312 -0.0390625 3.800781 0.046875 3.375 0.046875 Z M 1.015625 -3.1875 C 1.015625 -2.84375 1.066406 -2.507812 1.171875 -2.1875 C 1.285156 -1.863281 1.445312 -1.578125 1.65625 -1.328125 C 1.875 -1.085938 2.125 -0.890625 2.40625 -0.734375 C 2.695312 -0.585938 3.019531 -0.515625 3.375 -0.515625 C 3.738281 -0.515625 4.066406 -0.59375 4.359375 -0.75 C 4.648438 -0.90625 4.894531 -1.109375 5.09375 -1.359375 C 5.300781 -1.617188 5.457031 -1.90625 5.5625 -2.21875 C 5.675781 -2.539062 5.734375 -2.863281 5.734375 -3.1875 C 5.734375 -3.539062 5.675781 -3.878906 5.5625 -4.203125 C 5.445312 -4.523438 5.285156 -4.804688 5.078125 -5.046875 C 4.867188 -5.296875 4.617188 -5.492188 4.328125 -5.640625 C 4.035156 -5.785156 3.71875 -5.859375 3.375 -5.859375 C 3.007812 -5.859375 2.679688 -5.78125 2.390625 -5.625 C 2.097656 -5.476562 1.847656 -5.273438 1.640625 -5.015625 C 1.441406 -4.765625 1.285156 -4.476562 1.171875 -4.15625 C 1.066406 -3.84375 1.015625 -3.519531 1.015625 -3.1875 Z M 1.015625 -3.1875 "/></g></g></g><g fill="#000000" fill-opacity="1"><g transform="translate(130.68171, 214.873344)"><g><path d="M 1.4375 -5.21875 L 1.4375 0 L 0.796875 0 L 0.796875 -6.390625 L 1.28125 -6.390625 L 5.515625 -1.078125 L 5.515625 -6.375 L 6.140625 -6.375 L 6.140625 0 L 5.59375 0 Z M 1.4375 -5.21875 "/></g></g></g><g fill="#000000" fill-opacity="1"><g transform="translate(141.229769, 214.873344)"><g><path d="M 5.34375 -5.828125 L 3.0625 -5.828125 L 3.0625 0 L 2.4375 0 L 2.4375 -5.828125 L 0.15625 -5.828125 L 0.15625 -6.390625 L 5.34375 -6.390625 Z M 5.34375 -5.828125 "/></g></g></g><g fill="#000000" fill-opacity="1"><g transform="translate(150.3198, 214.873344)"><g><path d="M 5.09375 -0.5625 L 5.09375 0 L 0.796875 0 L 0.796875 -6.390625 L 5.015625 -6.390625 L 5.015625 -5.828125 L 1.4375 -5.828125 L 1.4375 -3.53125 L 4.546875 -3.53125 L 4.546875 -3 L 1.4375 -3 L 1.4375 -0.5625 Z M 5.09375 -0.5625 "/></g></g></g><g fill="#000000" fill-opacity="1"><g transform="translate(159.400833, 214.873344)"><g><path d="M 1.4375 -5.21875 L 1.4375 0 L 0.796875 0 L 0.796875 -6.390625 L 1.28125 -6.390625 L 5.515625 -1.078125 L 5.515625 -6.375 L 6.140625 -6.375 L 6.140625 0 L 5.59375 0 Z M 1.4375 -5.21875 "/></g></g></g><g fill="#000000" fill-opacity="1"><g transform="translate(169.948895, 214.873344)"><g><path d="M 0.796875 0 L 0.796875 -6.390625 L 2.96875 -6.390625 C 3.476562 -6.390625 3.921875 -6.304688 4.296875 -6.140625 C 4.679688 -5.972656 5 -5.742188 5.25 -5.453125 C 5.507812 -5.160156 5.703125 -4.820312 5.828125 -4.4375 C 5.960938 -4.050781 6.03125 -3.640625 6.03125 -3.203125 C 6.03125 -2.710938 5.957031 -2.269531 5.8125 -1.875 C 5.664062 -1.488281 5.457031 -1.15625 5.1875 -0.875 C 4.925781 -0.59375 4.609375 -0.375 4.234375 -0.21875 C 3.859375 -0.0703125 3.4375 0 2.96875 0 Z M 5.40625 -3.203125 C 5.40625 -3.585938 5.347656 -3.941406 5.234375 -4.265625 C 5.128906 -4.585938 4.972656 -4.863281 4.765625 -5.09375 C 4.554688 -5.320312 4.300781 -5.5 4 -5.625 C 3.707031 -5.757812 3.363281 -5.828125 2.96875 -5.828125 L 1.4375 -5.828125 L 1.4375 -0.5625 L 2.96875 -0.5625 C 3.363281 -0.5625 3.710938 -0.628906 4.015625 -0.765625 C 4.316406 -0.898438 4.566406 -1.082031 4.765625 -1.3125 C 4.972656 -1.550781 5.128906 -1.832031 5.234375 -2.15625 C 5.347656 -2.476562 5.40625 -2.828125 5.40625 -3.203125 Z M 5.40625 -3.203125 "/></g></g></g><g fill="#000000" fill-opacity="1"><g transform="translate(179.983937, 214.873344)"><g/></g></g><g fill="#000000" fill-opacity="1"><g transform="translate(185.878968, 214.873344)"><g/></g></g><g fill="#000000" fill-opacity="1"><g transform="translate(191.773968, 214.873344)"><g><path d="M 0.796875 0 L 0.796875 -6.390625 L 2.96875 -6.390625 C 3.476562 -6.390625 3.921875 -6.304688 4.296875 -6.140625 C 4.679688 -5.972656 5 -5.742188 5.25 -5.453125 C 5.507812 -5.160156 5.703125 -4.820312 5.828125 -4.4375 C 5.960938 -4.050781 6.03125 -3.640625 6.03125 -3.203125 C 6.03125 -2.710938 5.957031 -2.269531 5.8125 -1.875 C 5.664062 -1.488281 5.457031 -1.15625 5.1875 -0.875 C 4.925781 -0.59375 4.609375 -0.375 4.234375 -0.21875 C 3.859375 -0.0703125 3.4375 0 2.96875 0 Z M 5.40625 -3.203125 C 5.40625 -3.585938 5.347656 -3.941406 5.234375 -4.265625 C 5.128906 -4.585938 4.972656 -4.863281 4.765625 -5.09375 C 4.554688 -5.320312 4.300781 -5.5 4 -5.625 C 3.707031 -5.757812 3.363281 -5.828125 2.96875 -5.828125 L 1.4375 -5.828125 L 1.4375 -0.5625 L 2.96875 -0.5625 C 3.363281 -0.5625 3.710938 -0.628906 4.015625 -0.765625 C 4.316406 -0.898438 4.566406 -1.082031 4.765625 -1.3125 C 4.972656 -1.550781 5.128906 -1.832031 5.234375 -2.15625 C 5.347656 -2.476562 5.40625 -2.828125 5.40625 -3.203125 Z M 5.40625 -3.203125 "/></g></g></g><g fill="#000000" fill-opacity="1"><g transform="translate(201.809025, 214.873344)"><g><path d="M 5.09375 -0.5625 L 5.09375 0 L 0.796875 0 L 0.796875 -6.390625 L 5.015625 -6.390625 L 5.015625 -5.828125 L 1.4375 -5.828125 L 1.4375 -3.53125 L 4.546875 -3.53125 L 4.546875 -3 L 1.4375 -3 L 1.4375 -0.5625 Z M 5.09375 -0.5625 "/></g></g></g><g fill="#000000" fill-opacity="1"><g transform="translate(210.890043, 214.873344)"><g><path d="M 0.78125 -6.390625 L 3.0625 -0.78125 L 5.34375 -6.390625 L 6 -6.390625 L 3.328125 0 L 2.78125 0 L 0.109375 -6.390625 Z M 0.78125 -6.390625 "/></g></g></g><g fill="#000000" fill-opacity="1"><g transform="translate(220.601093, 214.873344)"><g><path d="M 5.09375 -0.5625 L 5.09375 0 L 0.796875 0 L 0.796875 -6.390625 L 5.015625 -6.390625 L 5.015625 -5.828125 L 1.4375 -5.828125 L 1.4375 -3.53125 L 4.546875 -3.53125 L 4.546875 -3 L 1.4375 -3 L 1.4375 -0.5625 Z M 5.09375 -0.5625 "/></g></g></g><g fill="#000000" fill-opacity="1"><g transform="translate(229.682128, 214.873344)"><g><path d="M 0.796875 0 L 0.796875 -6.390625 L 1.4375 -6.390625 L 1.4375 -0.5625 L 5.125 -0.5625 L 5.125 0 Z M 0.796875 0 "/></g></g></g><g fill="#000000" fill-opacity="1"><g transform="translate(238.529169, 214.873344)"><g><path d="M 3.375 0.046875 C 2.925781 0.046875 2.519531 -0.0390625 2.15625 -0.21875 C 1.789062 -0.40625 1.472656 -0.648438 1.203125 -0.953125 C 0.941406 -1.253906 0.738281 -1.597656 0.59375 -1.984375 C 0.445312 -2.378906 0.375 -2.78125 0.375 -3.1875 C 0.375 -3.613281 0.453125 -4.019531 0.609375 -4.40625 C 0.765625 -4.800781 0.972656 -5.148438 1.234375 -5.453125 C 1.503906 -5.753906 1.820312 -5.992188 2.1875 -6.171875 C 2.5625 -6.347656 2.960938 -6.4375 3.390625 -6.4375 C 3.828125 -6.4375 4.226562 -6.34375 4.59375 -6.15625 C 4.96875 -5.96875 5.285156 -5.71875 5.546875 -5.40625 C 5.804688 -5.101562 6.007812 -4.753906 6.15625 -4.359375 C 6.300781 -3.972656 6.375 -3.582031 6.375 -3.1875 C 6.375 -2.757812 6.296875 -2.347656 6.140625 -1.953125 C 5.984375 -1.566406 5.769531 -1.222656 5.5 -0.921875 C 5.238281 -0.628906 4.925781 -0.394531 4.5625 -0.21875 C 4.195312 -0.0390625 3.800781 0.046875 3.375 0.046875 Z M 1.015625 -3.1875 C 1.015625 -2.84375 1.066406 -2.507812 1.171875 -2.1875 C 1.285156 -1.863281 1.445312 -1.578125 1.65625 -1.328125 C 1.875 -1.085938 2.125 -0.890625 2.40625 -0.734375 C 2.695312 -0.585938 3.019531 -0.515625 3.375 -0.515625 C 3.738281 -0.515625 4.066406 -0.59375 4.359375 -0.75 C 4.648438 -0.90625 4.894531 -1.109375 5.09375 -1.359375 C 5.300781 -1.617188 5.457031 -1.90625 5.5625 -2.21875 C 5.675781 -2.539062 5.734375 -2.863281 5.734375 -3.1875 C 5.734375 -3.539062 5.675781 -3.878906 5.5625 -4.203125 C 5.445312 -4.523438 5.285156 -4.804688 5.078125 -5.046875 C 4.867188 -5.296875 4.617188 -5.492188 4.328125 -5.640625 C 4.035156 -5.785156 3.71875 -5.859375 3.375 -5.859375 C 3.007812 -5.859375 2.679688 -5.78125 2.390625 -5.625 C 2.097656 -5.476562 1.847656 -5.273438 1.640625 -5.015625 C 1.441406 -4.765625 1.285156 -4.476562 1.171875 -4.15625 C 1.066406 -3.84375 1.015625 -3.519531 1.015625 -3.1875 Z M 1.015625 -3.1875 "/></g></g></g><g fill="#000000" fill-opacity="1"><g transform="translate(248.888192, 214.873344)"><g><path d="M 0.796875 0 L 0.796875 -6.390625 L 3.453125 -6.390625 C 3.722656 -6.390625 3.972656 -6.328125 4.203125 -6.203125 C 4.429688 -6.085938 4.628906 -5.9375 4.796875 -5.75 C 4.972656 -5.5625 5.109375 -5.347656 5.203125 -5.109375 C 5.296875 -4.867188 5.34375 -4.628906 5.34375 -4.390625 C 5.34375 -4.117188 5.296875 -3.863281 5.203125 -3.625 C 5.117188 -3.382812 4.992188 -3.171875 4.828125 -2.984375 C 4.671875 -2.796875 4.476562 -2.644531 4.25 -2.53125 C 4.03125 -2.414062 3.78125 -2.359375 3.5 -2.359375 L 1.4375 -2.359375 L 1.4375 0 Z M 1.4375 -2.921875 L 3.46875 -2.921875 C 3.65625 -2.921875 3.828125 -2.957031 3.984375 -3.03125 C 4.140625 -3.113281 4.269531 -3.222656 4.375 -3.359375 C 4.476562 -3.492188 4.5625 -3.648438 4.625 -3.828125 C 4.6875 -4.003906 4.71875 -4.191406 4.71875 -4.390625 C 4.71875 -4.585938 4.679688 -4.773438 4.609375 -4.953125 C 4.546875 -5.128906 4.453125 -5.28125 4.328125 -5.40625 C 4.210938 -5.539062 4.078125 -5.644531 3.921875 -5.71875 C 3.765625 -5.789062 3.597656 -5.828125 3.421875 -5.828125 L 1.4375 -5.828125 Z M 1.4375 -2.921875 "/></g></g></g><g fill="#000000" fill-opacity="1"><g transform="translate(258.086266, 214.873344)"><g><path d="M 5.09375 -0.5625 L 5.09375 0 L 0.796875 0 L 0.796875 -6.390625 L 5.015625 -6.390625 L 5.015625 -5.828125 L 1.4375 -5.828125 L 1.4375 -3.53125 L 4.546875 -3.53125 L 4.546875 -3 L 1.4375 -3 L 1.4375 -0.5625 Z M 5.09375 -0.5625 "/></g></g></g><g fill="#000000" fill-opacity="1"><g transform="translate(267.167272, 214.873344)"><g><path d="M 0.796875 0 L 0.796875 -6.390625 L 3.5 -6.390625 C 3.78125 -6.390625 4.035156 -6.328125 4.265625 -6.203125 C 4.492188 -6.085938 4.691406 -5.9375 4.859375 -5.75 C 5.023438 -5.5625 5.15625 -5.347656 5.25 -5.109375 C 5.34375 -4.867188 5.390625 -4.628906 5.390625 -4.390625 C 5.390625 -4.148438 5.351562 -3.921875 5.28125 -3.703125 C 5.21875 -3.492188 5.125 -3.300781 5 -3.125 C 4.875 -2.957031 4.722656 -2.816406 4.546875 -2.703125 C 4.378906 -2.585938 4.1875 -2.507812 3.96875 -2.46875 L 5.53125 0 L 4.828125 0 L 3.328125 -2.359375 L 1.4375 -2.359375 L 1.4375 0 Z M 1.4375 -2.921875 L 3.515625 -2.921875 C 3.703125 -2.921875 3.867188 -2.957031 4.015625 -3.03125 C 4.171875 -3.113281 4.300781 -3.222656 4.40625 -3.359375 C 4.519531 -3.503906 4.609375 -3.660156 4.671875 -3.828125 C 4.734375 -4.003906 4.765625 -4.191406 4.765625 -4.390625 C 4.765625 -4.578125 4.726562 -4.757812 4.65625 -4.9375 C 4.582031 -5.113281 4.488281 -5.265625 4.375 -5.390625 C 4.257812 -5.523438 4.117188 -5.628906 3.953125 -5.703125 C 3.796875 -5.785156 3.632812 -5.828125 3.46875 -5.828125 L 1.4375 -5.828125 Z M 1.4375 -2.921875 "/></g></g></g></svg>