<?xml version="1.0" standalone="no"?>
<!DOCTYPE svg PUBLIC "-//W3C//DTD SVG 20010904//EN"
 "http://www.w3.org/TR/2001/REC-SVG-20010904/DTD/svg10.dtd">
<svg version="1.0" xmlns="http://www.w3.org/2000/svg"
 width="604.000000pt" height="413.000000pt" viewBox="0 0 604.000000 413.000000"
 preserveAspectRatio="xMidYMid meet">

<g transform="translate(0.000000,413.000000) scale(0.100000,-0.100000)"
fill="#000000" stroke="none">
<path d="M1826 3194 c-14 -14 -16 -95 -16 -740 0 -711 0 -724 20 -744 19 -19
33 -20 255 -20 150 0 235 -4 235 -10 0 -7 233 -10 680 -10 447 0 680 3 680 10
0 6 91 10 253 10 233 0 255 1 270 18 15 17 17 67 17 520 0 440 -2 502 -15 502
-13 0 -15 -58 -15 -460 l0 -460 -1175 0 -1175 0 0 660 0 660 810 0 810 0 0 40
0 40 -809 0 c-723 0 -811 -2 -825 -16z"/>
<path d="M4090 3006 c0 -2 8 -10 18 -17 15 -13 16 -12 3 4 -13 16 -21 21 -21
13z"/>
<path d="M3729 2973 c-13 -16 -12 -17 4 -4 16 13 21 21 13 21 -2 0 -10 -8 -17
-17z"/>
<path d="M4160 2945 c13 -14 26 -25 28 -25 3 0 -5 11 -18 25 -13 14 -26 25
-28 25 -3 0 5 -11 18 -25z"/>
<path d="M3664 2918 l-29 -33 35 30 c19 17 37 31 39 33 2 1 0 2 -5 2 -6 0 -23
-15 -40 -32z"/>
<path d="M4230 2885 c13 -14 26 -25 28 -25 3 0 -5 11 -18 25 -13 14 -26 25
-28 25 -3 0 5 -11 18 -25z"/>
<path d="M1380 2850 l-5 -55 -45 40 -45 39 48 -50 47 -50 -2 -205 -3 -204 -42
65 c-24 36 -43 61 -43 57 0 -5 20 -40 45 -78 44 -69 45 -71 47 -162 1 -54 3
-71 5 -42 4 45 9 55 52 95 47 45 31 38 -21 -9 l-28 -25 0 194 0 194 48 49 c26
27 38 45 26 39 -12 -6 -29 -23 -38 -37 -9 -14 -21 -25 -26 -25 -5 0 -11 51
-12 113 -2 81 -4 97 -8 57z"/>
<path d="M3579 2843 c-13 -16 -12 -17 4 -4 9 7 17 15 17 17 0 8 -8 3 -21 -13z"/>
<path d="M1606 2683 c9 -21 18 -44 21 -51 3 -6 -14 -55 -37 -108 -23 -52 -40
-98 -37 -100 3 -3 13 16 23 42 16 41 24 50 71 70 29 13 53 26 53 29 0 5 -41
-9 -71 -25 -27 -15 -25 -3 16 86 20 43 34 82 32 88 -2 5 -11 -10 -21 -34 l-17
-44 -19 42 c-11 23 -22 42 -25 42 -3 0 2 -17 11 -37z"/>
<path d="M1130 2512 l31 -64 -33 6 -33 6 35 -13 c19 -8 45 -29 58 -47 33 -48
27 -30 -13 44 -22 38 -34 74 -32 88 2 12 2 17 -1 9 -3 -11 -9 -9 -24 10 -12
15 -7 0 12 -39z"/>
<path d="M1970 2415 c0 -13 22 -15 135 -15 113 0 135 2 135 15 0 13 -22 15
-135 15 -113 0 -135 -2 -135 -15z"/>
<path d="M1545 2240 c-13 -6 -15 -9 -5 -9 8 0 22 4 30 9 18 12 2 12 -25 0z"/>
<path d="M1218 2213 c7 -3 16 -2 19 1 4 3 -2 6 -13 5 -11 0 -14 -3 -6 -6z"/>
<path d="M1970 2165 c0 -13 21 -15 136 -15 104 0 135 3 132 13 -3 8 -42 13
-136 15 -113 2 -132 0 -132 -13z"/>
<path d="M1970 2075 c0 -13 19 -15 132 -13 94 2 133 7 136 16 3 9 -28 12 -132
12 -115 0 -136 -2 -136 -15z"/>
<path d="M1635 1953 c-13 -52 -84 -190 -121 -234 -66 -79 -91 -88 -236 -89
-107 0 -128 -2 -128 -15 0 -13 31 -15 215 -15 166 0 215 3 215 13 0 7 8 17 18
24 19 11 23 38 48 281 6 64 1 82 -11 35z"/>
<path d="M1906 1554 c-12 -30 -5 -34 58 -34 49 0 65 4 70 16 12 30 5 34 -58
34 -49 0 -65 -4 -70 -16z"/>
<path d="M2066 1554 c-12 -30 -5 -34 59 -34 36 0 65 4 65 9 0 5 3 16 6 25 5
14 -4 16 -59 16 -50 0 -66 -4 -71 -16z"/>
<path d="M2216 1554 c-12 -30 -5 -34 58 -34 49 0 65 4 70 16 12 30 5 34 -58
34 -49 0 -65 -4 -70 -16z"/>
<path d="M2377 1563 c-4 -3 -7 -15 -7 -25 0 -16 9 -18 64 -18 60 0 64 1 68 25
5 24 4 25 -57 25 -34 0 -65 -3 -68 -7z"/>
<path d="M2530 1561 c0 -5 -3 -16 -6 -25 -5 -14 4 -16 59 -16 50 0 66 4 71 16
12 30 5 34 -59 34 -36 0 -65 -4 -65 -9z"/>
<path d="M2687 1563 c-4 -3 -7 -15 -7 -25 0 -16 9 -18 65 -18 36 0 65 4 65 9
0 5 3 16 6 25 5 14 -4 16 -58 16 -36 0 -68 -3 -71 -7z"/>
<path d="M2837 1563 c-4 -3 -7 -15 -7 -25 0 -17 7 -19 68 -16 61 3 67 5 70 26
3 21 0 22 -61 22 -35 0 -67 -3 -70 -7z"/>
<path d="M2990 1545 c0 -24 2 -25 65 -25 63 0 65 1 65 25 0 24 -2 25 -65 25
-63 0 -65 -1 -65 -25z"/>
<path d="M3150 1545 c0 -24 2 -25 65 -25 64 0 71 4 59 34 -5 12 -21 16 -65 16
-56 0 -59 -1 -59 -25z"/>
<path d="M3302 1548 c3 -21 9 -23 66 -26 61 -3 62 -2 62 23 0 24 -2 25 -66 25
-62 0 -65 -1 -62 -22z"/>
<path d="M3460 1545 c0 -24 2 -25 65 -25 63 0 65 1 65 25 0 24 -2 25 -65 25
-63 0 -65 -1 -65 -25z"/>
<path d="M3610 1561 c0 -34 13 -41 76 -41 63 0 70 4 58 34 -5 12 -21 16 -70
16 -35 0 -64 -4 -64 -9z"/>
<path d="M3764 1554 c3 -9 6 -20 6 -25 0 -5 30 -9 66 -9 56 0 65 2 60 16 -3 9
-6 20 -6 25 0 5 -30 9 -66 9 -56 0 -65 -2 -60 -16z"/>
<path d="M3919 1548 c8 -22 15 -23 110 -26 100 -3 107 0 95 32 -5 13 -24 16
-110 16 -103 0 -103 0 -95 -22z"/>
<path d="M1886 1494 c-12 -31 -4 -34 99 -34 58 0 105 4 105 9 0 5 3 16 6 25 5
14 -7 16 -99 16 -86 0 -106 -3 -111 -16z"/>
<path d="M2126 1494 c-12 -30 -5 -34 58 -34 49 0 65 4 70 16 12 30 5 34 -58
34 -49 0 -65 -4 -70 -16z"/>
<path d="M2287 1503 c-4 -3 -7 -15 -7 -25 0 -16 9 -18 64 -18 63 0 76 7 76 41
0 10 -123 13 -133 2z"/>
<path d="M2440 1485 c0 -24 2 -25 65 -25 63 0 65 1 65 25 0 24 -2 25 -65 25
-63 0 -65 -1 -65 -25z"/>
<path d="M2600 1485 c0 -24 2 -25 65 -25 63 0 65 1 65 25 0 24 -2 25 -65 25
-63 0 -65 -1 -65 -25z"/>
<path d="M2760 1485 c0 -24 2 -25 65 -25 63 0 65 1 65 25 0 24 -2 25 -65 25
-63 0 -65 -1 -65 -25z"/>
<path d="M2916 1494 c-12 -31 -5 -34 64 -34 68 0 70 1 70 25 0 24 -2 25 -64
25 -49 0 -65 -4 -70 -16z"/>
<path d="M3070 1485 c0 -24 2 -25 65 -25 63 0 65 1 65 25 0 24 -2 25 -65 25
-63 0 -65 -1 -65 -25z"/>
<path d="M3230 1485 c0 -24 2 -25 65 -25 63 0 65 1 65 25 0 24 -2 25 -65 25
-63 0 -65 -1 -65 -25z"/>
<path d="M3390 1485 c0 -24 2 -25 66 -25 62 0 65 1 62 23 -3 20 -9 22 -65 25
-62 3 -63 2 -63 -23z"/>
<path d="M3540 1501 c0 -34 13 -41 77 -41 55 0 64 2 59 16 -3 9 -6 20 -6 25 0
5 -29 9 -65 9 -36 0 -65 -4 -65 -9z"/>
<path d="M3704 1494 c3 -9 6 -20 6 -25 0 -5 29 -9 65 -9 64 0 71 4 59 34 -5
12 -21 16 -71 16 -55 0 -64 -2 -59 -16z"/>
<path d="M3859 1488 c7 -20 16 -23 76 -26 59 -3 67 -1 61 13 -3 9 -6 21 -6 26
0 5 -31 9 -70 9 -68 0 -69 -1 -61 -22z"/>
<path d="M4010 1504 c0 -3 5 -14 10 -25 9 -16 22 -19 75 -19 69 0 71 1 55 31
-9 16 -22 19 -75 19 -36 0 -65 -3 -65 -6z"/>
<path d="M1860 1424 c-6 -14 -10 -27 -10 -30 0 -2 58 -4 129 -4 125 0 129 1
135 23 3 12 6 25 6 30 0 4 -56 7 -125 7 -125 0 -125 0 -135 -26z"/>
<path d="M2146 1434 c-15 -39 -8 -44 59 -44 36 0 65 3 65 8 0 4 3 17 6 30 6
21 4 22 -59 22 -50 0 -66 -4 -71 -16z"/>
<path d="M2306 1434 c-15 -40 -9 -45 62 -42 65 3 67 4 70 31 3 27 3 27 -61 27
-50 0 -66 -4 -71 -16z"/>
<path d="M2470 1436 c0 -8 -3 -21 -6 -30 -5 -14 4 -16 65 -16 l71 0 0 30 0 30
-65 0 c-49 0 -65 -3 -65 -14z"/>
<path d="M2637 1443 c-4 -3 -7 -17 -7 -30 0 -22 4 -23 64 -23 60 0 64 1 68 25
3 13 3 27 0 30 -8 7 -117 6 -125 -2z"/>
<path d="M2797 1443 c-4 -3 -7 -17 -7 -30 0 -22 3 -23 70 -23 l70 0 0 30 0 30
-63 0 c-35 0 -67 -3 -70 -7z"/>
<path d="M2954 1435 c-14 -34 3 -45 71 -45 l65 0 0 30 0 30 -65 0 c-49 0 -67
-4 -71 -15z"/>
<path d="M3110 1420 l0 -30 70 0 c72 0 79 5 64 44 -5 12 -21 16 -70 16 l-64 0
0 -30z"/>
<path d="M3272 1423 c3 -27 5 -28 71 -31 l68 -3 -3 28 c-3 27 -5 28 -71 31
l-68 3 3 -28z"/>
<path d="M3432 1423 c3 -27 5 -28 71 -31 l68 -3 -3 28 c-3 27 -5 28 -71 31
l-68 3 3 -28z"/>
<path d="M3594 1428 c3 -13 6 -26 6 -30 0 -5 29 -8 65 -8 67 0 74 5 59 44 -5
12 -21 16 -71 16 -63 0 -65 -1 -59 -22z"/>
<path d="M3754 1428 c3 -13 6 -26 6 -30 0 -5 30 -8 66 -8 l65 0 -3 28 c-3 26
-5 27 -72 30 -67 3 -68 3 -62 -20z"/>
<path d="M3920 1436 c0 -44 7 -46 136 -46 128 0 134 2 114 41 -10 17 -22 19
-130 19 -97 0 -120 -3 -120 -14z"/>
<path d="M663 1342 c-68 -42 -123 -81 -123 -88 0 -10 454 -265 498 -278 17 -6
51 10 152 70 80 47 130 83 130 93 0 10 -36 36 -92 66 -51 28 -131 71 -178 96
-47 25 -115 62 -151 83 -36 20 -77 36 -90 35 -13 0 -79 -35 -146 -77z"/>
<path d="M1831 1358 l-8 -23 175 -3 c96 -1 176 -1 177 0 1 2 6 13 9 26 l7 22
-176 0 c-173 0 -176 0 -184 -22z"/>
<path d="M2210 1371 c0 -5 -3 -16 -6 -25 -5 -14 4 -16 64 -16 54 0 71 3 76 16
12 31 5 34 -64 34 -38 0 -70 -4 -70 -9z"/>
<path d="M2377 1373 c-4 -3 -7 -15 -7 -25 0 -16 9 -18 70 -18 68 0 70 1 70 25
0 24 -2 25 -63 25 -35 0 -67 -3 -70 -7z"/>
<path d="M2540 1355 c0 -24 2 -25 64 -25 49 0 65 4 70 16 12 31 5 34 -64 34
-68 0 -70 -1 -70 -25z"/>
<path d="M2707 1373 c-4 -3 -7 -15 -7 -25 0 -16 9 -18 70 -18 68 0 70 1 70 25
0 24 -2 25 -63 25 -35 0 -67 -3 -70 -7z"/>
<path d="M2870 1355 c0 -24 2 -25 70 -25 68 0 70 1 70 25 0 24 -2 25 -70 25
-68 0 -70 -1 -70 -25z"/>
<path d="M3030 1355 c0 -24 2 -25 70 -25 68 0 70 1 70 25 0 24 -2 25 -70 25
-68 0 -70 -1 -70 -25z"/>
<path d="M3200 1355 c0 -24 2 -25 71 -25 61 0 70 2 65 16 -3 9 -6 20 -6 25 0
5 -29 9 -65 9 -63 0 -65 -1 -65 -25z"/>
<path d="M3360 1355 c0 -24 2 -25 70 -25 68 0 70 1 70 25 0 24 -2 25 -70 25
-68 0 -70 -1 -70 -25z"/>
<path d="M3528 1355 c4 -24 8 -25 73 -25 68 0 75 3 63 34 -5 12 -21 16 -74 16
-66 0 -67 0 -62 -25z"/>
<path d="M3690 1355 c0 -24 2 -25 71 -25 67 0 70 1 67 23 -3 20 -9 22 -70 25
-67 3 -68 3 -68 -23z"/>
<path d="M3850 1371 c0 -25 14 -41 36 -41 17 0 24 -6 24 -20 0 -18 7 -20 71
-20 66 0 71 1 66 20 -5 19 0 20 79 20 46 0 84 3 84 6 0 3 -5 14 -10 25 -10 18
-23 19 -180 19 -97 0 -170 -4 -170 -9z"/>
<path d="M3750 1305 c0 -12 13 -15 61 -15 81 0 77 24 -4 28 -46 2 -57 0 -57
-13z"/>
<path d="M4090 1305 c0 -12 13 -15 61 -15 81 0 77 24 -4 28 -46 2 -57 0 -57
-13z"/>
<path d="M1810 1291 c-19 -36 -12 -41 58 -41 66 0 68 1 79 30 l11 30 -69 0
c-57 0 -70 -3 -79 -19z"/>
<path d="M1980 1284 c-6 -14 -10 -27 -10 -30 0 -2 31 -4 69 -4 68 0 69 1 80
30 l10 30 -70 0 c-65 0 -70 -2 -79 -26z"/>
<path d="M2146 1288 c-3 -13 -6 -26 -6 -30 0 -5 31 -8 69 -8 54 0 70 4 75 16
15 39 8 44 -63 44 -63 0 -69 -2 -75 -22z"/>
<path d="M2316 1288 c-3 -13 -6 -27 -6 -31 0 -4 42 -6 93 -5 l92 3 3 28 3 27
-89 0 c-85 0 -90 -1 -96 -22z"/>
<path d="M2530 1296 c0 -8 -3 -21 -6 -30 -6 -14 34 -16 408 -16 l415 0 -5 30
-4 30 -404 0 c-342 0 -404 -2 -404 -14z"/>
<path d="M3364 1288 c3 -13 6 -26 6 -30 0 -5 41 -8 90 -8 l90 0 0 30 0 30 -96
0 c-95 0 -96 0 -90 -22z"/>
<path d="M3582 1283 c3 -27 4 -28 75 -31 l71 -3 -7 28 c-7 27 -10 28 -75 31
l-67 3 3 -28z"/>
<path d="M3752 1268 c3 -8 29 -14 71 -16 55 -2 67 0 67 13 0 12 -14 15 -71 15
-52 0 -70 -3 -67 -12z"/>
<path d="M3922 1268 c3 -8 29 -14 71 -16 55 -2 67 0 67 13 0 12 -14 15 -71 15
-52 0 -70 -3 -67 -12z"/>
<path d="M4092 1268 c3 -8 29 -14 71 -16 55 -2 67 0 67 13 0 12 -14 15 -71 15
-52 0 -70 -3 -67 -12z"/>
<path d="M1290 1075 c0 -8 5 -15 10 -15 6 0 10 7 10 15 0 8 -4 15 -10 15 -5 0
-10 -7 -10 -15z"/>
<path d="M1237 1046 c-10 -8 -14 -16 -10 -19 5 -3 20 3 33 14 17 12 20 19 10
18 -8 0 -23 -6 -33 -13z"/>
<path d="M1168 1007 c-21 -12 -38 -28 -38 -35 0 -9 13 -5 40 10 22 13 40 29
40 36 0 15 3 16 -42 -11z"/>
<path d="M1480 926 c0 -60 -112 -56 1539 -56 1448 0 1509 1 1524 18 10 10 17
29 17 41 0 18 -3 20 -18 12 -23 -12 -3021 -12 -3044 0 -15 8 -18 5 -18 -15z"/>
</g>
</svg>
